<?xml version="1.0" encoding="UTF-8"?>
<!DOCTYPE svg PUBLIC "-//W3C//DTD SVG 1.1//EN" "http://www.w3.org/Graphics/SVG/1.1/DTD/svg11.dtd">
<!-- Creator: CorelDRAW X6 -->
<svg xmlns="http://www.w3.org/2000/svg" xml:space="preserve" width="820mm" height="300mm" version="1.1" style="shape-rendering:geometricPrecision; text-rendering:geometricPrecision; image-rendering:optimizeQuality; fill-rule:evenodd; clip-rule:evenodd"
viewBox="0 0 82000 30000"
 xmlns:xlink="http://www.w3.org/1999/xlink">
 <defs>
  <style type="text/css">
   <![CDATA[
    .fil0 {fill:#FEFEFE}
   ]]>
  </style>
 </defs>
 <g id="Warstwa_x0020_1">
  <metadata id="CorelCorpID_0Corel-Layer"/>
  <g id="_1284213056">
   <path class="fil0" d="M19299 6931c-4,-4 10,-10 11,-11l-11 11zm36 -109c-10,76 -134,156 -191,210 -233,219 -317,520 -473,692 -72,80 -127,89 -225,139 -7,4 -17,9 -24,12l-1444 850c-224,164 -478,268 -714,415 -105,65 -133,110 -236,165 -165,89 -407,100 -571,194 -55,31 -59,38 -107,75 -176,133 -472,175 -678,269l-327 183c-11,4 -44,13 -56,17 -572,150 -318,118 -685,262 -116,45 -221,52 -323,78 -135,34 -143,51 -262,102 -137,58 -153,78 -270,131l-563 202c-78,35 -44,23 -119,63 -103,55 -18,14 -124,58 -37,15 -47,18 -78,31l-203 88c-132,43 -148,28 -279,85 -105,46 -194,79 -283,118l-998 386c-53,25 -84,39 -124,58 -133,61 -96,53 -282,82 -744,117 -634,194 -1229,300 -247,44 -369,109 -590,175l-3885 588c-1871,117 -1940,-542 -2246,-747 61,-167 9,5 65,-118 55,-121 96,-327 74,-456 -19,-114 -188,-373 -321,-373 -233,0 -289,97 -396,259l-143 294c-56,132 -17,81 40,264l28 132c131,440 507,739 918,918l225 51c60,8 129,17 187,28 304,56 549,41 856,56 318,16 535,-33 836,-51l806 -126c210,-41 247,-3 404,-29 286,-47 519,-131 796,-154 71,-6 171,-13 235,-17 128,-8 141,37 277,-18 222,-90 118,-82 467,-150 398,-78 123,81 1021,-218 242,-81 538,-111 779,-204 267,-102 586,-120 861,-196l1092 -401c8,-4 18,-7 26,-11l743 -312c151,-54 228,-62 377,-133 433,-205 677,-220 901,-373 159,-108 390,-164 588,-214 187,-47 263,-67 386,-160 260,-196 99,-48 395,-117 84,-19 36,-16 94,-45 116,-58 116,2 230,-99 166,-146 333,-168 551,-253 8,-3 18,-7 26,-10 8,-3 18,-7 26,-10 180,-71 243,-191 453,-239 707,-164 549,-312 1088,-514l328 -182c146,-124 436,-194 610,-337l239 -161c7,-4 15,-10 22,-14l65 -44c179,-115 185,-215 388,-231 -67,127 -123,226 -184,363l-848 1701c-107,233 -292,423 -316,704 -100,8 -79,3 -146,36 128,191 -40,373 -146,655l-473 1020c-74,201 -113,407 -212,589 -235,433 -675,1357 -790,1796 -21,80 -34,188 -46,245 -80,364 -224,574 -331,871 -169,468 -300,965 -412,1445 -27,117 -92,355 -102,480 111,74 441,332 510,73l73 0c13,157 -5,66 73,182 249,-132 165,-211 158,-438 -10,-309 2,-134 52,-444 16,-99 3,-184 9,-282 12,-176 86,-246 131,-416l206 -797c7,-227 125,-436 195,-659 73,-231 83,-461 158,-680 52,-151 111,-252 111,-435l109 0c-3,-149 -13,-144 41,-248l289 -623c81,-119 76,-249 123,-387l236 -492c90,-142 187,-283 239,-453l108 -257c52,-99 52,-167 97,-267 38,-85 74,-127 130,-198 244,-309 57,-443 484,-827 246,-221 417,-551 577,-843 51,-93 83,-140 147,-217 61,-73 107,-99 150,-177l193 -353c234,-255 371,-529 516,-650 8,-7 32,-26 41,-32 85,-70 100,-96 169,-158 149,-133 69,-41 258,-106 96,-33 139,-76 210,-118 104,-61 399,-263 399,-2 0,226 -63,494 -183,654l-382 273c-229,135 -488,182 -736,251 -125,35 -130,-18 -265,-49 -83,156 10,66 -109,109 5,244 170,254 343,271 189,19 457,-13 633,-95 169,-79 377,-132 525,-239 242,-175 618,-252 895,-379 296,-136 418,-144 637,-237l722 -298c97,-34 -43,-2 104,-42 -118,224 -278,419 -361,659l-185 834c0,363 -16,232 53,312 204,239 213,59 463,22 224,-33 100,47 255,-73l38 -34c132,-105 203,-222 393,-226l158 -388c5,-6 12,-14 17,-19 232,-259 269,-243 356,-336l957 -828c57,-43 97,-56 160,-95 220,-136 66,-142 260,-287 132,-99 233,-99 278,-268 208,0 451,88 614,150 766,293 956,414 1789,396 -268,233 -293,182 -393,262 -111,88 -207,322 -626,357 -15,181 -34,146 -219,146 -25,296 -308,374 -499,521 -176,136 -397,278 -521,462 121,181 164,140 386,93 185,-39 283,48 431,110l478 287c6,5 14,12 19,17 8,7 31,27 39,33 65,53 99,73 165,127 518,424 1071,796 1590,1214 6,5 13,12 19,17l61 48c7,4 16,10 23,13 10,5 41,17 51,22l286 151c131,88 253,120 390,193 414,221 936,298 1384,364 248,36 310,9 497,19 95,5 78,32 245,9l830 -187c195,-29 382,-215 541,-302 237,-130 295,12 321,-225 -96,-48 30,-36 -109,-36 -135,0 -357,148 -478,214 -641,353 -1797,186 -2425,-79 -603,-255 -450,-215 -956,-501l-1094 -836c-179,-140 -329,-275 -525,-422l-1150 -744c50,-186 156,-221 321,-298 161,-75 325,-232 474,-327l101 -81c164,-184 230,-255 495,-379 277,-130 312,-225 488,-313 7,-4 17,-8 25,-12l49 -24c8,-4 17,-8 25,-12 96,-43 114,-39 198,-93l253 -184c236,-117 452,19 522,-279 -176,-41 -340,-157 -541,-70 -139,60 -247,216 -442,216 -302,0 -647,-8 -884,-99 -373,-144 -510,-31 -1014,-260 -239,-108 -531,-47 -788,-86 -659,-101 -262,-115 -695,269l-1337 1249c-148,123 -179,205 -312,307l-496 488c-11,13 -58,67 -69,77 -57,52 -4,29 -87,59 0,-121 14,-268 20,-334l205 -789c148,-281 110,-296 198,-531 28,-75 329,-387 14,-387 -141,0 -199,135 -310,200 -70,41 -95,39 -169,86 -614,390 -720,261 -1175,536 -313,189 -672,330 -1041,416 126,-189 291,-602 291,-838 0,-725 -863,-258 -1162,-69 -293,185 -324,197 -553,467l-33 40c-128,152 -233,236 -350,415 -192,294 -272,301 -441,505 -58,71 -12,15 -59,86 -49,73 -4,22 -60,86 14,-169 47,-238 116,-358 44,-77 43,-100 82,-173 78,-147 122,-111 194,-280 72,-168 187,-277 271,-421 28,-49 14,-29 55,-90 148,-217 597,-650 606,-670 75,-161 49,-221 -13,-339 -239,20 -53,81 -401,0z"/>
   <path class="fil0" d="M42000 9499c-139,36 21,-58 60,-19 65,65 -26,10 -60,19zm-596 -1184c72,-150 35,-200 154,-356l489 -422c1,0 58,-40 65,-45 206,-122 354,-94 531,-52l0 255c-418,221 -812,520 -1238,619zm-8886 -728c50,-189 181,-152 364,-219 78,-29 619,-247 619,37 0,225 -776,282 -983,182zm14021 -619c-4,4 -10,-10 -11,-11l11 11zm-13693 947c324,0 181,-40 510,36 -64,-55 -45,-49 -146,-73 64,-87 192,-127 305,-169 9,-3 19,-5 28,-9 451,-170 237,-672 -188,-733 -271,-39 -678,125 -910,218 -295,118 -406,272 -650,69l-158 -133c-108,-97 -70,-79 -140,-187 -49,-75 -84,-90 -123,-168l-92 -236c-185,-458 -3,-717 -110,-909 -513,137 -392,1436 510,2039 -123,184 -538,455 -497,907 9,103 100,215 177,287l448 280 564 110 365 -54c237,-16 161,-109 322,-121 313,-23 82,17 328,-103 188,-92 482,-158 659,-252 140,-74 141,-87 326,-148 69,-23 113,-39 182,-73l138 -80c116,-71 -2,-29 178,-77 226,-59 339,-172 453,-203 -78,117 -108,226 -189,357 -335,539 -105,838 542,688 253,-59 499,-289 736,-357l258 -106 7 83c-2,23 -11,63 -15,86 -33,180 -8,263 8,450 241,20 439,59 678,-11 371,-109 654,-329 961,-535 10,122 16,103 24,225 2,36 9,108 30,191 41,161 85,239 273,239l1227 -230c141,-61 420,-53 847,-246 93,-42 27,-38 148,-70 33,141 137,288 240,380 6,6 59,48 60,49 261,194 566,142 865,300 87,-63 100,-111 222,-177 132,-73 183,-58 335,-104 498,-152 1007,-438 1551,-670 204,-87 385,-207 561,-349l396 -296c286,-154 510,-391 785,-562 131,-82 127,-133 265,-208l364 -291c-74,275 -899,1763 -910,2258 147,34 170,109 255,109 142,0 98,-31 255,-73 -13,-158 -44,-264 -9,-358l74 -179c14,-38 10,-30 25,-64 66,-147 189,-342 336,-414 78,-38 92,-5 145,117l442 905c226,463 -25,252 251,514 58,55 52,54 103,115l1602 1675c111,113 363,377 584,545l179 218c74,84 11,16 88,44 133,48 214,142 341,221 604,377 750,546 1466,828 296,117 527,220 838,291 724,165 1008,95 1703,-112 413,-123 659,-103 679,-341 -248,0 -462,34 -676,89 -291,75 -586,129 -890,129 -684,0 -1876,-633 -2413,-1119 -112,-102 -218,-158 -327,-256l-1255 -1112c-65,-54 -85,-86 -143,-149l-54 -55c-5,-5 -14,-12 -19,-17l-219 -219c-5,-6 -12,-14 -17,-19l-56 -54c-226,-207 -386,-488 -605,-706 -191,-190 -271,-227 -210,-482 -170,-14 -243,-166 -326,-293l-504 -735c-143,-248 -386,-352 -27,-557 253,-144 987,-825 1134,-1017 48,-63 36,33 68,-119 86,-404 -455,256 -563,355l-133 122c-288,255 -516,357 -695,507 -71,59 -127,124 -223,148 -9,2 -107,19 -120,21 -90,13 -122,13 -103,-47l80 -121c215,-256 313,-540 471,-843 138,-264 385,-483 586,-725l401 -401c5,-6 11,-15 16,-21l385 -416c232,-189 145,-194 296,-360 130,-143 388,-226 548,-435 126,-164 766,-693 962,-858 6,-5 14,-12 20,-17 6,-5 14,-12 20,-16l470 -367c6,-5 14,-12 20,-17 6,-5 14,-12 20,-16 6,-5 14,-11 20,-16l65 -45c119,-78 280,-200 403,-252 571,-245 444,-150 678,-87 72,-48 109,-65 183,-109 303,-176 616,-624 -25,-569 -170,15 -285,84 -413,131 -284,104 -658,325 -865,519l-305 241c-245,172 -489,451 -758,589 -118,61 -248,103 -355,191 -286,235 -646,481 -869,770 -168,217 -343,369 -534,558 -188,186 -322,412 -492,601l-544 585c-230,275 -450,435 -714,670 -162,144 -321,214 -453,348l-1775 1247c-67,33 -110,47 -176,79 -560,267 -547,224 -986,398 -335,133 -596,161 -968,161 -189,0 -637,-137 -546,-364 50,-126 19,-10 103,-123 90,-121 305,-155 438,-210l510 -291c76,-59 131,-86 209,-155l173 -191c352,-688 -607,-752 -1046,-537 -170,84 -324,222 -465,336 -168,135 -267,284 -379,458 -87,136 -118,417 -180,549 -126,270 -1459,601 -1693,601 -541,0 -255,-101 -255,-656l109 0c-138,-206 -24,-365 111,-617 68,-126 202,-233 217,-403 -35,-37 -72,-74 -109,-109 -141,38 -67,37 -132,86 -128,97 -278,143 -357,298 -176,345 -281,462 -594,717 -156,127 -100,5 -244,193 -74,96 -115,156 -229,208l-264 173c-278,-133 -198,-84 -85,-522l189 -539c64,-171 178,-302 255,-462l-140 -115c-435,230 -552,794 -998,1005 -110,52 -181,72 -278,123 -186,97 -263,251 -509,256 20,-48 40,-290 75,-435 30,-125 83,-262 130,-417 29,-97 51,-136 84,-207 85,-182 240,-301 330,-471 -49,-72 -66,-101 -109,-182l-419 237c-7,8 -25,32 -32,41l-307 385c-321,276 -803,392 -1166,582l-973 374c-101,43 -130,60 -231,98 -44,17 -71,26 -131,52 -295,126 -673,110 -921,-101 -104,-89 -224,-269 -244,-445 -66,-576 526,-384 964,-384z"/>
  </g>
  <g id="_1284211328">
   <path class="fil0" d="M65823 18707c11,-100 100,-197 154,-283 28,-44 7,-19 44,-66l176 -152c351,-258 229,-199 697,-396 88,-37 40,-26 154,-65 299,-101 441,-88 696,-180 158,-57 162,-58 301,-25 -64,241 -537,474 -765,582l-567 307c-466,257 -176,97 -604,272 -171,70 -158,89 -285,4zm-13074 -910c0,-20 73,-178 89,-202 66,-100 45,-59 145,-110l137 -118c32,-44 2,-50 137,-118 389,-199 225,-253 767,-253 -106,159 -135,95 -465,592 -72,108 -27,68 -120,136l-244 130c-40,13 30,-76 -47,16 -58,70 -7,-24 38,146 -233,-156 1,28 -237,-20 -9,-2 -201,-80 -201,-199zm6107 -1905c0,-5 14,7 11,11 -4,4 -10,-10 -11,-11l0 0zm13557 -2722c298,-204 318,-217 584,-217 0,513 -158,434 -340,752 -82,143 -57,180 -184,290l-136 119c-60,62 -49,55 -101,118 -112,135 -101,145 -187,286 -121,198 -911,836 -1139,1046 -10,9 -56,51 -57,52l-36 37c-151,153 -162,105 -288,222 -90,84 -141,153 -239,234 -2,1 -83,61 -84,62l-190 138c-96,75 -178,114 -281,192 -66,50 -73,66 -140,115 -156,117 -296,241 -422,270 5,-223 187,-404 260,-522 2,-4 7,-13 9,-17 26,-47 -20,-9 67,-107 43,-49 66,-61 108,-113 67,-82 94,-157 156,-245 188,-270 413,-432 588,-687 223,-326 127,-238 396,-441 98,-74 47,-72 173,-227 282,-350 446,-380 632,-606 347,-420 582,-433 599,-639l254 -110zm-12162 1422c168,-39 239,-122 316,-267 104,-196 163,-213 282,-410 158,-262 400,-229 553,-431 131,-173 153,-156 308,-275 103,-79 65,-37 132,-160 151,-276 233,-175 414,-387 3,-3 55,-74 61,-84 74,-119 70,-208 193,-208 165,0 77,31 81,61 29,207 -326,561 -379,661 -152,284 -370,384 -618,584 -121,97 -196,205 -316,303 -262,211 -355,230 -692,510 -317,262 -275,183 -333,104zm-1784 3824c0,-474 -9,-499 102,-918 61,-231 219,-703 363,-872 207,-242 302,-568 507,-807 54,-63 86,-119 134,-193 88,-136 488,-592 634,-677 24,-14 85,-43 119,-63l199 -129c74,-51 19,-7 82,-64 348,-318 759,-534 1092,-874 231,-236 470,-346 694,-617 98,-118 54,-71 123,-205 82,-161 394,-389 394,-589 0,-210 8,-190 -109,-364 -401,33 -414,65 -656,255 -525,412 -973,897 -1460,1344 -281,258 -566,542 -797,842l-401 510c-433,614 -419,480 -941,843 -354,246 -784,415 -1134,651 -209,141 -1230,607 -1516,706 -126,43 -204,63 -327,110 -265,101 -372,167 -669,242 -281,71 -307,180 -694,180 129,-193 298,-361 409,-574 61,-117 195,-281 196,-411 4,-370 -550,86 -642,147 -277,-414 -572,-2 -1020,-109 19,83 28,84 36,182 -222,52 -196,66 -336,210 -114,117 -163,151 -347,199l-878 215c-287,62 -1680,132 -1680,-332 0,-120 109,-122 24,-312 -46,-103 -23,-62 -105,-117 -387,-262 -440,39 -757,65 0,184 -7,244 65,372 48,85 153,169 153,247 0,160 7,-13 -40,105 -94,232 -328,353 -535,484 -63,40 -110,69 -174,117 -279,212 -487,325 -853,240 -6,-283 44,-343 291,-473 -21,-188 42,-66 -73,-109 4,-190 85,-215 235,-311 78,-50 86,-43 156,-99 54,-44 75,-77 130,-125 287,-248 565,-168 572,-484 -400,9 -667,245 -920,501 -591,598 -292,338 -645,775 -301,372 -1883,615 -2041,691 0,-530 89,-468 -105,-1061 -82,-252 -50,-315 -93,-599 -97,-640 510,-999 161,-999 -134,0 -208,121 -303,207 -83,75 -41,21 -112,107 -113,136 -174,278 -252,440 -69,143 -72,155 -198,239l-834 513c-114,61 -157,96 -279,158 -132,66 -174,109 -297,176l-285 152c-289,145 -1356,525 -1577,645 -129,70 -184,98 -196,241 322,-27 694,-269 987,-360 107,-33 176,-40 275,-89 135,-66 62,-55 222,-105l1013 -517c6,-3 16,-8 21,-11l89 -44c4,-2 13,-7 17,-10l422 -295c153,-106 322,-264 521,-280 0,434 102,810 218,1202 61,207 112,384 -177,442 -320,64 -509,148 -770,323 8,97 40,222 73,291 330,0 821,-22 986,-179 84,-80 180,-227 288,-295 140,-87 848,-201 1119,-301 89,-33 104,-38 195,-59 181,-42 257,-109 415,-168 158,-59 245,-152 383,-163 0,91 -5,83 18,164 0,1 29,70 33,77 150,311 311,248 605,197 181,-32 119,-56 280,-120 99,-40 207,-51 313,-88 245,-86 431,-190 630,-353 6,-5 14,-12 20,-17 56,-49 40,-32 89,-93 81,-100 92,-128 191,-209 116,-96 108,-135 252,-132 95,2 275,78 337,82l693 -14c141,-16 201,-27 357,-46l330 -40c316,-4 622,-209 951,-209 -23,99 -66,273 -44,345l153 237c55,75 152,119 252,149 125,37 130,-3 330,-3l-745 1697c-90,173 -10,50 -55,202 -85,288 -385,964 -530,1251l-389 812c-164,324 -381,610 -591,902 -346,483 -1113,1184 -1615,1553l-121 98c-8,7 -33,25 -41,32 -35,26 -55,37 -86,60l-1394 1009c-63,47 -112,98 -187,141l-1430 755c-7,4 -16,10 -22,14l-654 402c-142,81 -265,121 -424,195 -347,163 -1159,393 -1221,564 344,0 570,-127 884,-208l1071 -422c374,-187 648,-443 1390,-759l277 -124c128,-58 147,-107 263,-174 163,-94 446,-204 572,-302 103,-79 84,-118 206,-195l222 -215c89,-107 244,-129 348,-198 1,-1 55,-46 60,-49l343 -276c533,-539 786,-510 908,-731l69 -113c64,-58 129,-67 183,-145 163,-238 394,-325 552,-541 150,-206 46,26 329,-400l346 -419c80,-96 76,-157 137,-264l144 -293c37,-150 108,-164 142,-296 29,-114 -10,-60 42,-176l365 -692c159,-274 200,-402 302,-681l966 -2093c5,-6 13,-13 18,-19 5,-6 12,-14 17,-20 9,-11 44,-58 48,-62l141 -78c93,-32 28,5 131,-51 175,-94 84,-70 323,-114 253,-47 133,-49 306,-131l630 -208c124,-52 185,-75 323,-115l302 -135c56,-32 10,-11 72,-37l517 -211c50,-14 121,-37 165,-53l958 -536c67,-40 86,-49 141,-78 70,-37 88,-48 142,-76l835 -440c-102,437 -947,1327 -947,2294 0,224 44,376 263,465 141,57 263,107 408,96 351,-27 678,1 1032,-59l387 -123c9,-3 18,-7 27,-10 82,-28 -21,-2 108,-37 12,-3 110,-24 119,-27 201,-45 434,-100 607,-195l290 -147c76,78 -145,729 568,569 173,-39 139,-91 343,-96 -30,130 -43,245 58,342 193,188 233,167 561,167 -33,90 -15,43 -84,98 -730,586 -650,681 -1092,1202 -121,142 -263,308 -314,487 -116,407 -522,908 325,908 225,0 97,-139 -11,-207 -272,-172 -245,-207 -142,-456l155 -391c111,-271 360,-447 534,-668 67,-86 29,-50 106,-112 274,-221 378,-385 440,-434 163,-130 6,65 220,-104l431 -227c250,-81 140,-129 486,-170 272,-32 596,-137 850,-243l169 -49c222,-37 471,-164 658,-179 16,719 565,351 937,245l848 -427c8,-4 18,-7 26,-10l292 -218c122,-107 145,-74 286,-151l270 -167 -168 633c-104,458 -170,777 57,1226 65,128 77,125 172,229l248 225c123,114 228,196 405,250 221,68 362,120 580,185 547,163 1400,166 1983,166 213,0 1712,-119 1865,-173 345,-120 240,55 668,-135 112,-50 194,-42 328,-73l1809 -486c144,-59 329,-63 470,-112l624 -213c309,-58 631,-209 937,-301 329,-99 315,-133 577,-261 139,-69 327,-94 476,-143l580 -258c66,-42 54,-39 125,-57l730 -292c175,-118 513,-73 654,-290l75 -144c74,-133 21,31 61,-121 -172,-14 -59,-21 -218,-73 -462,-149 -440,283 -557,427 -132,163 -880,404 -1108,494l-1131 435c-8,4 -17,8 -25,12 -385,189 -820,253 -1223,379 -195,61 -361,136 -562,203l-2538 667c-448,74 -887,215 -1303,224 -1123,25 -2146,135 -3203,-297 -542,-222 -793,-418 -929,-1004 -55,-236 -15,-396 37,-606 16,-65 15,-125 24,-195 16,-131 130,-597 205,-742 57,-111 4,-9 59,-86l45 -64c336,-509 405,-433 866,-773l93 -89c5,-5 13,-13 19,-18l697 -541c89,-79 178,-131 269,-205l427 -411c125,-132 270,-205 402,-326l431 -407c50,-50 81,-75 129,-125 81,-84 49,-40 89,-130 48,-108 -4,-66 84,-171 35,-41 62,-55 115,-103l350 -379c6,-9 21,-37 27,-46 4,-7 10,-16 14,-23 36,-57 10,-11 44,-65 325,-520 296,-405 340,-867 29,-298 -226,-310 -435,-176l-368 251c-138,89 -225,184 -344,276l-1612 1448c-390,395 -857,858 -1198,1279l-979 1396c-1100,-110 -1253,152 -2126,488 -145,56 -72,23 -180,112 -717,587 -232,218 -765,509 -236,129 -470,148 -692,255 -257,125 -248,41 -459,54 -210,13 -918,381 -1291,46 -144,-130 -48,25 -105,-150 -70,-217 -16,-223 42,-307l76 -142c4,-7 10,-16 14,-23 4,-7 10,-15 15,-22l146 -255c39,-47 83,-80 129,-126 126,-128 340,-488 399,-673l-154 -138c-106,28 -50,-2 -136,82 -11,11 -47,55 -50,59l-654 673c-2,4 -6,13 -8,17 -195,392 -575,735 -1044,625 0,-195 24,-331 130,-453l479 -468c331,-292 737,-253 829,-343 282,-277 -356,-231 -717,18 -480,330 -405,120 -877,653 -118,134 -307,211 -483,282 -108,44 -192,59 -298,103 -453,183 -263,73 -551,177 -351,127 -506,178 -935,166 -102,-3 -199,2 -314,-17 -178,-30 -149,-49 -286,-81z"/>
   <path class="fil0" d="M32974 18234c0,-29 129,-478 144,-511 57,-124 197,-248 257,-362 77,-145 224,-173 349,-270 148,-113 135,-223 341,-278 0,-703 -583,10 -622,33 -94,56 -35,37 -179,40 46,99 31,122 -48,204 -5,6 -13,13 -19,18l-130 91c-6,5 -14,12 -19,18l-67 118c-77,109 -86,64 -140,82 -89,29 -113,123 -217,178 -45,24 -34,13 -76,33l-586 288c-383,153 -881,278 -1262,450 -76,34 -132,59 -199,92 -393,188 -812,248 -1159,370 -543,192 -520,148 -1027,284 -333,90 -534,66 -806,-78 31,-115 24,-63 85,-170 90,-157 -56,-60 97,-122 -69,-833 -1451,692 255,692l1560 -443c232,-81 239,-37 614,-187 199,-79 424,-90 603,-198 102,-62 135,-110 248,-152 158,-59 197,-10 493,-127 59,-23 79,-21 142,-40l571 -230c143,-58 287,-200 433,-229 100,-20 15,129 6,152 -38,96 -6,-16 -31,82 -69,261 -149,617 -14,863 311,566 1048,-293 1348,-401 112,234 53,438 255,619 101,91 -10,22 136,83 163,69 397,86 557,99 103,-154 248,-247 374,-391 82,-94 71,-131 147,-218 146,-168 301,-301 397,-513l190 -356c47,-105 29,-148 94,-270 279,23 244,186 765,182l881 -4c176,8 248,-25 420,-43 362,-37 810,-87 1175,-172l-40 142c-52,139 -105,173 -105,259 0,177 10,179 109,328 409,0 743,-142 910,-146l-1554 2234c-272,452 -107,253 -478,651 -179,193 -526,749 -652,987l-258 397c-90,125 -110,271 -357,626 -53,76 -74,133 -125,203 -404,563 -1107,1126 -1594,1648l-656 655c-128,113 -239,166 -364,291 -222,221 -511,353 -745,566 -205,186 -275,85 -747,564 -121,122 -238,176 -385,271l-845 466c-184,92 -403,153 -578,259l-87 59c-255,174 -833,439 -1138,465 20,241 216,139 374,83 187,-66 396,-81 561,-167l1717 -796c152,-100 265,-231 412,-316l849 -572c103,-103 225,-124 343,-203l304 -242c135,-140 258,-200 408,-320 148,-119 282,-312 446,-391l345 -238c93,-84 64,-126 172,-192 132,-80 88,18 234,-130l323 -369c64,-98 102,-115 177,-188 119,-116 180,-271 299,-393 139,-144 175,-253 328,-400 30,-29 70,-63 94,-90 112,-129 27,-95 95,-194l1267 -1792c63,-76 95,-124 152,-212l903 -1245c61,-74 98,-125 159,-206 115,-153 186,-287 301,-427 373,-455 192,-326 413,-643 57,-81 109,-128 143,-210 49,-117 -33,-44 112,-187 83,-82 83,-77 154,-177l513 -579c64,-79 89,-133 91,-237 187,-16 182,-97 282,-191l58 -51c71,-66 359,-232 248,-343 -66,-66 -377,53 -453,101l-654 548c-122,125 -199,184 -355,264 -1324,683 -1113,-50 -780,-270 252,-167 789,-277 816,-604 -97,-46 -39,-33 -182,-36l0 -109c-377,31 -509,443 -868,552 -456,138 -2336,364 -2831,124 -207,-100 -323,-273 -497,-414 -5,-4 -17,-12 -21,-15l-177 60c-6,5 -15,12 -20,17 -222,189 156,456 -219,907 -255,306 -285,675 -866,1064 -108,-161 -164,-192 -236,-383l-88 -527c7,-113 52,-139 113,-211 74,-88 356,-444 356,-518 0,-536 -549,157 -683,300 -205,218 -231,457 -329,581 -50,64 -188,133 -261,176 -237,141 -597,574 -672,60l-22 -280z"/>
  </g>
 </g>
</svg>
