<?xml version="1.0" encoding="UTF-8" standalone="no"?>
<!-- Created with Inkscape (http://www.inkscape.org/) -->

<svg
   xmlns:dc="http://purl.org/dc/elements/1.1/"
   xmlns:cc="http://creativecommons.org/ns#"
   xmlns:rdf="http://www.w3.org/1999/02/22-rdf-syntax-ns#"
   xmlns:svg="http://www.w3.org/2000/svg"
   xmlns="http://www.w3.org/2000/svg"
   xmlns:sodipodi="http://sodipodi.sourceforge.net/DTD/sodipodi-0.dtd"
   xmlns:inkscape="http://www.inkscape.org/namespaces/inkscape"
   width="800mm"
   height="140mm"
   viewBox="0 0 800 140"
   version="1.1"
   id="svg8"
   inkscape:version="0.92.2 (5c3e80d, 2017-08-06)"
   sodipodi:docname="przemek_signature.svg">
  <defs
     id="defs2" />
  <sodipodi:namedview
     id="base"
     pagecolor="#ffffff"
     bordercolor="#666666"
     borderopacity="1.0"
     inkscape:pageopacity="1"
     inkscape:pageshadow="2"
     inkscape:zoom="0.27796999"
     inkscape:cx="1860.1101"
     inkscape:cy="577.35398"
     inkscape:document-units="mm"
     inkscape:current-layer="layer1"
     showgrid="false"
     inkscape:window-width="1920"
     inkscape:window-height="1017"
     inkscape:window-x="-8"
     inkscape:window-y="-8"
     inkscape:window-maximized="1"
     inkscape:pagecheckerboard="true" />
  <metadata
     id="metadata5">
    <rdf:RDF>
      <cc:Work
         rdf:about="">
        <dc:format>image/svg+xml</dc:format>
        <dc:type
           rdf:resource="http://purl.org/dc/dcmitype/StillImage" />
        <dc:title></dc:title>
      </cc:Work>
    </rdf:RDF>
  </metadata>
  <g
     inkscape:label="Layer 1"
     inkscape:groupmode="layer"
     id="layer1"
     transform="translate(0,-157)">
    <path
       style="fill:#000000;stroke-width:0.26458332"
       d="m 419.37947,289.99657 c -0.39262,-0.47307 -0.4058,-0.46585 3.10798,-1.70355 1.61837,-0.57005 3.59733,-1.47111 4.39766,-2.00235 0.80034,-0.53123 1.96467,-1.14534 2.58736,-1.36468 1.6309,-0.57443 4.44167,-1.94721 5.36557,-2.62051 0.43656,-0.31815 1.44859,-0.93712 2.24896,-1.37549 2.51666,-1.37841 3.08295,-1.78097 4.86987,-3.46173 0.95779,-0.90092 2.24819,-1.89498 2.86755,-2.20902 0.61936,-0.31404 1.5317,-0.92488 2.02745,-1.35741 0.49572,-0.43254 1.68635,-1.29224 2.64583,-1.91045 0.95946,-0.61822 2.04216,-1.41167 2.40596,-1.76323 0.36381,-0.35155 1.25678,-1.10646 1.98438,-1.67755 1.35453,-1.06318 11.6486,-11.29465 15.21355,-15.12105 2.00641,-2.15355 3.60299,-4.46874 4.6905,-6.8017 0.32727,-0.70203 0.95359,-1.71142 1.39184,-2.2431 0.43826,-0.53168 0.79682,-1.07549 0.79682,-1.20847 0,-0.3068 2.76588,-4.7473 3.75328,-6.02572 0.40954,-0.53026 0.74464,-1.06259 0.74464,-1.18295 0,-0.12036 0.64593,-0.87713 1.43539,-1.68172 0.78949,-0.80458 1.7204,-1.99866 2.0687,-2.65351 1.0859,-2.04154 2.5513,-4.18415 4.12382,-6.0296 0.83217,-0.97658 2.57149,-3.38295 3.86514,-5.34748 1.29365,-1.96453 2.66978,-4.04813 3.05808,-4.63021 0.38828,-0.58208 0.7883,-1.20036 0.8889,-1.37394 0.12379,-0.21359 -0.39643,-0.15947 -1.60928,0.16739 -2.74899,0.74087 -4.70662,0.86383 -5.17882,0.3253 -0.86601,-0.98768 -0.80759,-1.54467 0.48829,-4.65479 0.17904,-0.42969 0.13279,-0.47583 -0.29689,-0.29628 -1.68894,0.70576 -8.55745,1.47478 -14.34322,1.60593 -5.24987,0.119 -5.40322,0.1072 -6.99093,-0.53795 -0.89284,-0.36279 -1.76866,-0.65962 -1.94628,-0.65962 -0.37774,0 -0.64415,0.59172 -0.64415,1.43073 0,0.32653 -0.29718,0.87289 -0.66043,1.21413 -0.36322,0.34123 -0.60669,0.67414 -0.54102,0.7398 0.25514,0.25515 -1.21547,2.6505 -2.63276,4.28826 -4.25509,4.91701 -4.07623,4.7625 -5.51329,4.7625 -2.9683,0 -4.45619,-1.05113 -5.10008,-3.60303 -0.21598,-0.85599 -0.44286,-1.70434 -0.50416,-1.88522 -0.11671,-0.34433 -0.9016,0.107 -2.94889,1.69568 -5.26383,4.0847 -8.47362,2.24074 -6.98354,-4.01188 0.27752,-1.16458 0.58539,-2.32579 0.68416,-2.58045 0.26206,-0.67588 -0.28917,-0.57901 -1.55851,0.27387 -0.60317,0.40528 -1.51341,0.90012 -2.02274,1.09962 -0.50932,0.19951 -1.56895,0.64836 -2.35473,0.99745 -0.78579,0.34909 -1.79782,0.70404 -2.24896,0.78878 -0.45114,0.0847 -0.99886,0.30037 -1.21714,0.47918 -0.21828,0.17881 -1.03227,0.39621 -1.80885,0.4831 -0.9353,0.10464 -1.82152,0.42925 -2.62506,0.96148 -0.66718,0.44193 -1.3761,0.8035 -1.57539,0.8035 -0.5566,0 -3.86744,1.09393 -4.26537,1.40932 -0.19405,0.15379 -0.55123,0.31044 -0.79375,0.34811 -0.84606,0.13142 -2.03142,0.4033 -2.42533,0.55628 -0.4949,0.1922 -0.36023,0.15039 -2.24896,0.69818 -0.87312,0.25323 -1.82562,0.56 -2.11667,0.68171 -0.29104,0.1217 -1.3626,0.41785 -2.38125,0.6581 -1.01864,0.24025 -2.54023,0.62948 -3.38132,0.86496 -1.31048,0.3669 -1.78345,0.38131 -3.30605,0.10077 -1.87814,-0.34607 -3.33343,-1.07393 -3.767,-1.8841 -0.1437,-0.26847 -0.26125,-0.92833 -0.26125,-1.46637 0,-0.80226 0.20794,-1.18618 1.15581,-2.13406 1.28576,-1.28578 1.77014,-1.40488 2.54836,-0.62665 0.55843,0.55842 0.7113,1.32292 0.26458,1.32292 -0.14552,0 -0.26458,0.1871 -0.26458,0.41577 0,0.22868 -0.18392,0.59969 -0.40868,0.82446 -0.92141,0.92141 0.55528,1.81715 2.92222,1.7726 1.80459,-0.034 6.09116,-0.91755 8.30273,-1.71142 0.81777,-0.29355 1.9631,-0.65072 2.54518,-0.7937 2.5581,-0.62841 6.70209,-2.05606 8.13213,-2.8016 1.05998,-0.55263 4.14028,-1.68197 5.36163,-1.96576 0.58208,-0.13525 1.47505,-0.41485 1.98437,-0.62133 0.50932,-0.20648 1.75948,-0.69555 2.77813,-1.08683 3.54184,-1.36049 7.72702,-3.95146 7.59518,-4.70207 -0.0428,-0.24344 0.0374,-0.44262 0.17812,-0.44262 0.50757,0 1.88399,-1.38171 1.88399,-1.89122 0,-0.28669 0.11821,-0.44819 0.26273,-0.35889 0.14449,0.0893 0.84921,-0.42412 1.56601,-1.14094 1.51268,-1.51267 2.49082,-1.87946 3.22946,-1.211 0.7036,0.63676 0.61825,1.33735 -0.22956,1.88397 -0.40018,0.25802 -1.00803,0.79888 -1.3508,1.20191 -0.34277,0.40304 -1.14644,1.03943 -1.78594,1.41421 -0.6395,0.37477 -1.16274,0.79427 -1.16274,0.9322 0,0.13794 -0.46146,0.87077 -1.02549,1.62851 -1.45167,1.95026 -1.96022,3.69125 -1.80325,6.17326 0.14478,2.28934 0.54012,2.94838 1.54599,2.57725 0.34171,-0.12608 1.72151,-0.94357 3.06623,-1.81665 1.68778,-1.0958 2.49978,-1.79225 2.62202,-2.24886 0.0974,-0.3638 0.45569,-1.10558 0.79621,-1.64839 0.34052,-0.54281 0.61913,-1.05753 0.61913,-1.14382 0,-0.39013 3.03961,-3.54404 3.82132,-3.96502 1.95723,-1.05404 2.28299,0.55163 0.54277,2.67535 -0.50848,0.62052 -0.92451,1.21007 -0.92451,1.31009 0,0.10002 -0.30763,0.54746 -0.68363,0.9943 -0.6428,0.76394 -0.67265,0.9242 -0.49977,2.68403 0.1011,1.02937 0.27326,1.99065 0.38256,2.13617 0.10927,0.14552 0.27207,0.57266 0.36174,0.9492 0.18817,0.79027 1.14572,2.09351 1.53818,2.09351 0.53049,0 4.42815,-4.29559 4.99637,-5.50648 0.32014,-0.68222 0.93863,-1.69136 1.37445,-2.24253 0.67792,-0.85736 1.25567,-2.28375 1.30874,-3.2312 0.008,-0.14552 -0.0697,-0.8599 -0.17306,-1.5875 -0.17952,-1.26406 -0.15161,-1.34964 0.62685,-1.92356 l 0.81473,-0.60065 1.61777,1.48726 c 2.52299,2.31946 3.25932,2.55106 7.99502,2.51473 6.54995,-0.0503 13.46377,-0.81542 15.68061,-1.73542 0.44686,-0.18544 1.40502,-0.93915 2.12929,-1.67493 0.72424,-0.73577 1.63856,-1.41852 2.03181,-1.51722 0.39325,-0.0987 0.71501,-0.28561 0.71501,-0.41535 0,-0.12975 0.1786,-0.2359 0.39688,-0.2359 0.21828,0 0.39687,0.17859 0.39687,0.39687 0,0.21828 0.16402,0.39688 0.36449,0.39688 0.20045,0 0.51454,0.18082 0.69798,0.40183 0.27344,0.3295 0.24368,0.50108 -0.16542,0.95313 -0.2744,0.30321 -0.84521,0.73037 -1.26847,0.94924 -0.42323,0.21887 -0.89977,0.51866 -1.05894,0.66621 -0.1592,0.14754 -1.06095,0.64089 -2.0039,1.09632 -1.92238,0.92847 -2.97529,2.30868 -2.85192,3.73847 0.062,0.71838 0.1669,0.8018 1.1049,0.87851 1.10077,0.09 4.17679,-0.87365 6.17681,-1.93511 0.62028,-0.3292 1.81091,-1.20717 2.64583,-1.95103 3.23292,-2.88037 5.07172,-4.26872 5.66568,-4.27778 0.33816,-0.005 0.9125,-0.17953 1.2763,-0.3875 0.91167,-0.52116 1.05833,-0.49063 1.05833,0.2203 0,0.60514 -1.74146,2.29324 -2.36574,2.29324 -0.15404,0 -0.28009,0.18413 -0.28009,0.40918 0,0.22505 -0.33719,0.60269 -0.74928,0.83921 -0.41211,0.23652 -0.90196,0.77496 -1.08857,1.19653 -0.34491,0.77921 -1.47085,2.053 -1.8147,2.053 -0.1039,0 -0.35563,0.26789 -0.55935,0.59531 -0.45787,0.73578 -1.72506,2.31106 -2.86571,3.56242 -0.47294,0.51886 -0.85989,1.09335 -0.85989,1.27667 0,0.18331 -0.47625,0.96712 -1.05834,1.7418 -0.58208,0.77468 -1.05833,1.59835 -1.05833,1.83037 0,0.23203 -0.80367,1.44608 -1.78594,2.6979 -0.98226,1.25182 -2.02406,2.63774 -2.3151,3.07982 -1.51024,2.29396 -3.28012,4.73623 -4.12943,5.69821 -0.52491,0.59458 -1.23929,1.51238 -1.5875,2.03957 -1.5706,2.37801 -2.97792,4.355 -3.2729,4.59772 -0.17687,0.14552 -0.52152,0.65154 -0.76589,1.12448 -0.24439,0.47294 -0.56327,0.8599 -0.70866,0.8599 -0.14539,0 -0.38558,0.26789 -0.53374,0.59531 -0.3524,0.77875 -0.77317,1.47665 -1.50345,2.49373 -0.32742,0.45601 -0.59531,0.93197 -0.59531,1.05769 0,0.12573 -0.49088,0.82172 -1.09087,1.54666 -1.52104,1.83782 -4.20079,5.6357 -4.20079,5.95357 0,0.14514 -0.62508,0.96367 -1.38907,1.81897 -2.05679,2.30263 -2.56429,2.9359 -2.96624,3.70124 -0.19995,0.38071 -0.87937,1.2328 -1.50985,1.89354 -0.63047,0.66074 -1.74162,1.88586 -2.46922,2.72249 -0.7276,0.83664 -1.56888,1.58336 -1.86947,1.65938 -0.30059,0.076 -1.36771,0.90473 -2.37133,1.84157 -1.00364,0.93684 -2.04134,1.70335 -2.30603,1.70335 -0.26469,0 -0.55147,0.18299 -0.6373,0.40666 -0.0858,0.22366 -0.49879,0.5839 -0.91773,0.80054 -0.41892,0.21664 -0.76169,0.53966 -0.76169,0.71782 -2e-5,0.37925 -1.36101,1.51161 -2.5654,2.13443 -0.46312,0.23949 -0.99811,0.65024 -1.18885,0.91276 -0.43873,0.60387 -2.84792,2.43612 -3.2032,2.43612 -0.2735,0 -1.69215,1.00083 -3.75928,2.65205 -0.64188,0.51274 -1.94601,1.33178 -2.89809,1.82009 -0.95205,0.48831 -1.73101,0.97729 -1.73101,1.08662 0,0.2185 -3.49173,2.64332 -3.80637,2.64332 -0.10766,0 -0.93237,0.34761 -1.83269,0.77246 -0.90035,0.42485 -2.29183,1.07932 -3.09219,1.45437 -0.80036,0.37505 -1.6338,0.79125 -1.85208,0.92488 -0.21828,0.13364 -1.05172,0.50359 -1.85209,0.82213 -0.80036,0.31853 -1.81239,0.72914 -2.24895,0.91246 -0.88469,0.3715 -5.52175,1.72829 -5.90672,1.72829 -0.13542,0 -0.38563,-0.168 -0.55602,-0.37332 z m 102.06813,-4.34866 c 0.34097,-0.26228 1.29347,-0.70052 2.11667,-0.97386 0.82317,-0.27335 1.67529,-0.59225 1.89357,-0.70868 0.21828,-0.11643 1.7004,-0.74962 3.29358,-1.40709 2.88523,-1.19067 5.13866,-2.40903 11.52309,-6.23011 0.21828,-0.13064 1.05171,-0.57784 1.85208,-0.99378 6.43985,-3.34666 8.07601,-4.33449 10.35193,-6.24992 0.52758,-0.44401 2.01586,-1.4963 3.30729,-2.33842 1.29143,-0.84212 3.41963,-2.42406 4.72932,-3.51542 1.30969,-1.09136 3.17431,-2.63138 4.14359,-3.42225 2.67086,-2.17924 7.09189,-6.6791 8.86328,-9.02131 1.65401,-2.18702 4.45563,-6.66151 4.45563,-7.11614 0,-0.14552 0.0615,-0.32412 0.13666,-0.39688 0.24291,-0.23517 3.4544,-6.86736 3.81627,-7.8812 0.19285,-0.54029 0.65154,-1.63718 1.01928,-2.43755 0.36774,-0.80037 0.92747,-2.22912 1.24383,-3.175 0.31637,-0.94589 0.75497,-2.13651 0.97468,-2.64583 0.62563,-1.4503 3.53298,-7.74965 3.8309,-8.30042 0.35962,-0.66483 1.02282,-2.89439 0.89807,-3.01914 -0.0547,-0.0547 -0.76403,-0.13047 -1.57628,-0.16839 -1.45328,-0.0678 -2.5382,-0.63485 -2.5382,-1.32655 0,-0.16339 -0.25331,-0.51396 -0.5629,-0.77904 -0.4803,-0.41125 -0.54039,-0.67225 -0.40934,-1.7786 0.14296,-1.20701 0.11322,-1.29661 -0.43013,-1.29661 -0.32102,0 -1.41674,0.24127 -2.43494,0.53617 -4.53826,1.31441 -12.43766,1.96743 -15.43375,1.27585 -1.27818,-0.29503 -1.35522,-0.27856 -2.44488,0.52278 -0.61881,0.45508 -1.31392,1.11318 -1.54469,1.46244 -0.92578,1.40112 -3.40749,2.92163 -6.10812,3.74235 -0.80037,0.24324 -1.87193,0.60519 -2.38125,0.80435 -1.7032,0.666 -3.88631,0.97922 -4.5076,0.64671 -0.60283,-0.32263 -1.31323,-1.7465 -1.31323,-2.63216 0,-0.67201 -0.37653,-0.67751 -1.7198,-0.0251 -2.01043,0.97639 -3.56756,1.60415 -3.97901,1.60415 -0.22709,0 -0.76579,0.18249 -1.19714,0.40554 -0.43132,0.22305 -1.2886,0.51497 -1.90508,0.6487 -6.11004,1.32551 -6.38725,1.43261 -8.29,3.20272 -1.29476,1.20452 -1.88018,1.57163 -2.54762,1.59764 -0.94726,0.0369 -1.19986,0.062 -3.43813,0.34211 l -1.51326,0.18934 -0.38198,-0.87792 c -0.37562,-0.86332 -0.36618,-0.89226 0.56796,-1.74025 0.52245,-0.47427 1.43484,-0.98592 2.0275,-1.13699 0.59269,-0.15107 1.79197,-0.48187 2.6651,-0.73511 l 1.5875,-0.46044 -0.0936,-1.16295 c -0.0515,-0.63961 -0.43844,-2.53792 -0.8599,-4.21845 -0.42142,-1.68053 -0.76625,-3.7225 -0.76625,-4.53771 0,-0.81521 -0.0718,-1.55398 -0.1595,-1.6417 -0.22608,-0.22608 -1.46264,0.28139 -2.08946,0.85749 -0.29104,0.2675 -0.89443,0.70605 -1.34086,0.97456 -0.44643,0.26852 -1.45846,0.91862 -2.24896,1.44467 -0.79049,0.52605 -2.06335,1.2832 -2.82858,1.68255 -0.76523,0.39935 -1.45685,0.83215 -1.53696,0.96177 -0.0801,0.12963 -0.36761,0.23568 -0.63892,0.23568 -0.27128,0 -0.82981,0.27549 -1.24116,0.6122 -0.72845,0.59629 -2.47131,1.50447 -2.88716,1.50447 -0.11396,0 -0.69128,0.21821 -1.28294,0.48492 -0.59163,0.2667 -1.55196,0.64079 -2.13405,0.83131 -0.58208,0.19052 -1.71317,0.64431 -2.51354,1.00843 -2.55691,1.16324 -5.02708,1.9185 -5.02708,1.53704 0,-0.6065 0.95059,-1.22408 3.30972,-2.15024 1.27209,-0.4994 2.44679,-1.01679 2.61044,-1.14975 0.16364,-0.13296 1.12829,-0.49682 2.14365,-0.80858 2.12566,-0.65267 3.89755,-1.46898 6.88515,-3.17197 1.16416,-0.66361 2.43303,-1.38623 2.81971,-1.60584 0.38667,-0.2196 1.55184,-0.84943 2.58924,-1.39961 1.03741,-0.55018 2.08696,-1.23479 2.33233,-1.52135 0.24535,-0.28657 0.53274,-0.52103 0.63863,-0.52103 0.10588,0 0.72932,-0.36228 1.38541,-0.80506 0.89553,-0.6044 1.40819,-1.24245 2.05671,-2.55976 0.96401,-1.95824 3.48869,-4.83727 4.24188,-4.83727 0.88149,0 0.83619,0.80214 -0.15457,2.73808 -0.85524,1.67112 -0.96562,2.10845 -0.94504,3.74421 0.0279,2.22128 0.29604,3.90604 0.99216,6.23462 0.70903,2.37175 0.86926,3.73411 0.60537,5.14674 -0.12293,0.65791 -0.13772,1.24921 -0.0329,1.31401 0.20359,0.12583 5.69253,-0.98404 7.01894,-1.41924 5.05407,-1.65827 7.44474,-2.81339 8.22296,-3.97316 0.35171,-0.52413 0.9229,-1.36969 1.26929,-1.87901 0.89662,-1.31826 4.00881,-4.24092 5.72595,-5.37722 1.50437,-0.99549 3.9641,-1.62142 3.9641,-1.00874 0,0.48085 -1.01182,1.35887 -1.56594,1.35887 -0.70504,0 -6.37156,4.4507 -6.37156,5.00444 0,0.24529 0.11411,0.56008 0.25357,0.69955 0.29938,0.29938 0.0777,0.66828 -0.64021,1.06526 -0.86397,0.47777 -1.49389,1.85274 -1.20134,2.62221 0.22304,0.58664 0.40555,0.66271 1.58993,0.66271 1.5257,0 3.00347,-0.53792 3.9668,-1.44393 0.3638,-0.34216 1.19022,-0.91558 1.8365,-1.27426 1.79842,-0.99814 3.65188,-2.61733 4.00584,-3.49952 0.34981,-0.87186 0.32951,-1.53809 -0.0511,-1.67747 -0.36608,-0.13407 -1.29334,-2.17121 -1.29334,-2.84141 0,-0.43324 0.27191,-0.69183 1.05834,-1.0065 0.58208,-0.2329 1.05833,-0.54348 1.05833,-0.69018 0,-0.41523 1.94133,-0.31364 2.8712,0.15025 1.11435,0.5559 1.42706,1.21842 1.22164,2.58828 -0.15835,1.0559 -0.10687,1.18837 0.75634,1.94629 1.46118,1.28293 2.53531,1.53244 6.5279,1.51634 3.63921,-0.0147 4.9438,-0.22001 10.17331,-1.60114 2.04256,-0.53945 2.5336,-0.7858 3.57188,-1.79193 0.66206,-0.64158 1.47166,-1.24671 1.79908,-1.34474 0.37172,-0.11129 0.59532,-0.38687 0.59532,-0.73367 0,-0.30549 0.0655,-0.48994 0.14554,-0.4099 0.08,0.08 0.58606,0.0348 1.12448,-0.10049 3.13788,-0.7886 5.10763,-0.69133 5.47669,0.27044 0.21344,0.55622 -0.58795,1.12411 -1.32522,0.93907 -0.60626,-0.15216 -3.30483,0.61038 -3.30483,0.93386 0,0.10298 -0.55112,0.46247 -1.2247,0.79888 -0.67358,0.3364 -1.28146,0.82866 -1.3508,1.09392 -0.0694,0.26525 -0.52536,0.61403 -1.01333,0.77507 -0.92805,0.30629 -1.70998,1.45178 -1.69453,2.48245 0.0122,0.80497 1.06122,1.45104 2.32794,1.43355 0.98219,-0.0135 1.06259,-0.0637 0.82211,-0.5131 -0.20505,-0.38316 -0.17645,-0.49808 0.12401,-0.49808 0.21482,0 0.46774,0.12485 0.56203,0.27744 0.23987,0.38809 0.92665,-0.21192 0.75489,-0.65951 -0.0725,-0.18887 0.047,-0.41199 0.26545,-0.49582 0.21849,-0.0838 0.94613,-0.9856 1.617,-2.00392 0.67085,-1.01831 1.88339,-2.42359 2.69449,-3.12285 0.81108,-0.69926 1.72739,-1.4911 2.03624,-1.75964 1.4419,-1.25383 3.37132,-1.6061 3.5528,-0.64866 0.12147,0.64081 -1.6291,4.04124 -2.99033,5.80861 -0.63399,0.82318 -1.10222,1.5472 -1.0405,1.60894 0.16846,0.16845 3.1101,-0.478 3.76148,-0.82661 0.31226,-0.16711 1.25629,-0.52758 2.09788,-0.80105 2.5023,-0.81309 7.7637,-2.80887 9.46767,-3.59129 0.87312,-0.40093 2.81379,-1.30983 4.31257,-2.01979 1.49879,-0.70997 2.79252,-1.29085 2.87496,-1.29085 0.0824,0 0.70163,-0.40204 1.37597,-0.89344 1.43822,-1.04803 3.81291,-2.28156 4.3923,-2.28156 0.22309,0 0.40565,-0.11906 0.40565,-0.26458 0,-0.14552 0.10256,-0.26458 0.22792,-0.26458 0.12536,0 1.10762,-0.57879 2.18281,-1.28619 1.07519,-0.7074 2.43115,-1.53267 3.01323,-1.83394 1.11829,-0.57879 2.09259,-1.52125 2.92876,-2.833 0.27828,-0.43656 0.77493,-1.09019 1.1037,-1.4525 0.32878,-0.36232 0.59775,-0.73105 0.59775,-0.81941 0,-0.14278 0.39614,-0.6668 1.35083,-1.78695 0.16627,-0.19508 0.98743,-1.21683 1.82478,-2.27056 0.83735,-1.05373 1.86439,-2.18281 2.2823,-2.50907 0.78853,-0.61564 4.80255,-4.5029 6.48694,-6.28213 0.53057,-0.56043 1.7212,-1.69177 2.64584,-2.5141 0.92466,-0.82232 2.23028,-1.98318 2.90139,-2.57969 0.67112,-0.5965 1.32596,-1.08938 1.45521,-1.0953 0.12925,-0.006 0.64722,-0.3631 1.15104,-0.79375 0.76161,-0.65098 1.14933,-0.78299 2.2995,-0.78299 1.52773,0 1.72357,0.16646 1.83613,1.56077 0.0791,0.97944 -0.91623,3.1053 -1.66198,3.54982 -0.19913,0.11869 -0.71933,0.84885 -1.15597,1.62256 -0.43667,0.77372 -1.43296,1.98629 -2.21401,2.69462 -4.24857,3.85305 -8.33979,7.22676 -8.54307,7.04482 -0.0392,-0.0351 -0.39974,0.22547 -0.80108,0.57909 -1.63116,1.43722 -2.62816,2.20055 -3.50301,2.68199 -0.50665,0.27882 -1.08071,0.65578 -1.27566,0.83768 -0.19497,0.1819 -0.52456,0.33073 -0.73244,0.33073 -0.20789,0 -0.37799,0.15255 -0.37799,0.33901 0,0.18646 -0.72072,1.04966 -1.6016,1.91823 -0.88088,0.86857 -2.01832,2.20429 -2.52767,2.96828 -0.50935,0.76398 -1.03603,1.38906 -1.17036,1.38906 -0.13435,0 -0.4708,0.44649 -0.74766,0.99219 -0.51684,1.01873 -1.39708,2.65157 -1.99586,3.70234 -0.18603,0.32642 -0.51689,0.80267 -0.73527,1.05834 -0.21839,0.25566 -0.66382,1.17921 -0.98984,2.05234 -0.32602,0.87312 -0.69022,1.77483 -0.80928,2.0038 -0.57065,1.09723 -1.38432,4.75718 -1.44436,6.49657 -0.0955,2.76726 0.11634,2.88708 5.02833,2.84429 3.18339,-0.0277 3.90739,-0.1144 5.00256,-0.59884 0.70426,-0.31153 1.76776,-0.63981 2.36333,-0.72953 0.59561,-0.0897 1.71149,-0.44531 2.47978,-0.79022 0.7683,-0.34491 1.51543,-0.62711 1.66026,-0.62711 0.53486,0 3.87766,-1.83087 4.43069,-2.42671 0.31446,-0.3388 0.84614,-0.91366 1.18152,-1.27746 0.76798,-0.83305 2.6878,-2.18686 3.89835,-2.74902 0.50932,-0.23652 1.31241,-0.67788 1.78467,-0.98079 0.90625,-0.58129 3.22598,-1.28884 4.24291,-1.29413 0.80401,-0.004 1.00081,0.61029 0.41465,1.29486 -0.33089,0.38645 -0.79682,0.55793 -1.54008,0.56679 -0.58614,0.007 -1.48241,0.23863 -1.99173,0.51476 -0.50933,0.27613 -1.16417,0.61611 -1.45521,0.7555 -0.29104,0.13939 -1.04593,0.80071 -1.67749,1.46961 -0.63158,0.66889 -1.26031,1.21617 -1.39716,1.21617 -0.25408,0 -1.94913,1.81475 -1.95648,2.09464 -0.003,0.0849 -0.0775,0.27338 -0.16733,0.4189 -0.40052,0.64907 -0.50009,1.91067 -0.17113,2.16859 1.02619,0.80456 2.6751,0.45303 4.89537,-1.04364 0.99762,-0.67248 2.72318,-2.79631 2.72318,-3.3517 0,-0.11872 1.23729,-1.48197 2.74955,-3.02945 2.84109,-2.90727 3.58018,-3.31103 4.14139,-2.26241 0.23034,0.43037 0.20756,0.64783 -0.10383,0.99219 -0.21936,0.24255 -0.75533,1.15538 -1.19107,2.02851 -0.43574,0.87312 -1.27778,2.05814 -1.87124,2.63338 -0.59343,0.57524 -1.07897,1.18574 -1.07897,1.35666 0,0.17094 -0.1786,0.45901 -0.39688,0.64016 -0.21828,0.18116 -0.39687,0.53835 -0.39687,0.79375 0,0.25541 -0.18312,0.61636 -0.40696,0.80212 -0.27273,0.22635 -0.38732,0.71708 -0.34742,1.48795 0.0649,1.25347 0.61907,1.97096 1.89608,2.45481 0.90636,0.34341 4.04799,0.37113 5.10268,0.045 3.21302,-0.99346 3.84095,-1.12467 4.15094,-0.86741 0.2295,0.19048 0.76205,0.11453 1.77914,-0.25374 0.79838,-0.28909 1.8683,-0.61765 2.37762,-0.73014 0.50933,-0.1125 1.75948,-0.60955 2.77813,-1.10455 1.01864,-0.49501 1.98633,-0.87018 2.15037,-0.83372 0.16407,0.0365 0.67707,-0.28751 1.13999,-0.71994 1.98591,-1.85513 3.42953,-2.91814 4.52953,-3.33536 0.64677,-0.24532 2.17649,-0.92308 3.39939,-1.50614 3.49444,-1.6661 8.76224,-2.72103 10.4081,-2.08433 0.91311,0.35322 1.52366,0.13023 1.52366,-0.55647 0,-0.29188 0.30165,-0.90422 0.67035,-1.36075 1.78943,-2.21572 3.2684,-4.13087 4.14859,-5.37214 2.16159,-3.04828 5.65573,-6.91149 10.11473,-11.18307 1.3013,-1.24658 3.56348,-3.44114 5.02708,-4.87678 1.46362,-1.43565 3.43503,-3.24619 4.38092,-4.02344 4.82674,-3.96619 5.75138,-4.68907 6.48229,-5.0679 0.43656,-0.22627 1.1303,-0.6923 1.54165,-1.03562 0.8976,-0.74917 2.6621,-0.8665 3.03411,-0.20176 0.28924,0.51684 0.12319,2.86066 -0.27938,3.94315 -0.16235,0.43656 -0.57036,1.16217 -0.90672,1.61247 -0.33634,0.4503 -0.61154,0.93786 -0.61154,1.08347 0,0.14562 -0.23812,0.48025 -0.52916,0.74364 -0.29104,0.26339 -0.52917,0.63089 -0.52917,0.81667 0,0.18578 -0.87611,1.21105 -1.94691,2.27838 -1.07079,1.06734 -2.03771,2.23634 -2.14871,2.59778 -0.19597,0.63821 -5.07563,5.54711 -5.51727,5.55035 -0.1211,7.9e-4 -1.25884,0.98388 -2.52831,2.18442 -3.60878,3.41283 -7.56544,6.66638 -9.18649,7.55405 -0.34565,0.18928 -0.75269,0.57623 -0.90448,0.85989 -0.15182,0.28366 -0.42386,0.51575 -0.60457,0.51575 -0.29316,0 -1.80578,1.03605 -3.97595,2.72324 -0.96621,0.75116 -2.68343,3.30597 -3.09422,4.60342 -0.1755,0.55424 -0.47845,1.38835 -0.67324,1.85357 -0.19478,0.46522 -0.42796,1.47726 -0.51818,2.24896 -0.0902,0.77171 -0.28157,1.71458 -0.42527,2.09526 -0.49276,1.30555 -0.32543,4.41935 0.32182,5.98857 0.60748,1.47288 0.89045,1.91071 1.92317,2.97572 0.68654,0.708 1.89667,1.50299 3.21715,2.11348 3.05721,1.41342 3.37767,1.51852 6.87917,2.25608 2.80397,0.59064 3.81762,0.66935 8.67415,0.6736 3.02453,0.003 5.58668,-0.0493 5.69365,-0.11539 0.10697,-0.0661 1.4914,-0.15244 3.07655,-0.19184 2.87536,-0.0715 4.68823,-0.33221 7.69107,-1.10615 0.87312,-0.22503 2.12328,-0.48646 2.77812,-0.58095 1.83819,-0.26522 5.74003,-1.17851 7.9375,-1.8579 4.76105,-1.47196 7.36494,-2.24172 8.59896,-2.54202 0.7276,-0.17707 1.8587,-0.54927 2.51354,-0.82711 0.65485,-0.27784 2.38125,-0.80568 3.83646,-1.17299 3.14952,-0.79495 6.23837,-1.78139 7.22479,-2.30727 1.38232,-0.73694 3.14619,-1.4463 4.69884,-1.88968 1.65106,-0.47148 3.30581,-1.10667 5.58864,-2.14526 0.75496,-0.34348 1.5105,-0.62451 1.67896,-0.62451 0.16847,0 0.6223,-0.16546 1.00857,-0.36768 0.38627,-0.20223 1.495,-0.75027 2.46388,-1.21786 1.53567,-0.74113 1.78252,-0.96165 1.92466,-1.71933 0.24598,-1.31121 1.32545,-2.25138 2.58492,-2.25138 0.85979,0 1.82764,0.28759 2.28841,0.67999 0.0511,0.0435 -0.10858,0.53341 -0.35488,1.08864 -0.34177,0.77045 -0.75277,1.15047 -1.73562,1.60481 -0.70831,0.32742 -1.6315,0.59531 -2.05152,0.59531 -0.42765,0 -0.97438,0.23283 -1.24257,0.52917 -0.26339,0.29104 -0.59777,0.52917 -0.74308,0.52917 -0.14531,0 -0.8922,0.2971 -1.65978,0.66021 -1.33268,0.63046 -2.11799,0.86441 -3.04676,0.90763 -0.23238,0.0108 -0.67281,0.23672 -0.97872,0.50203 -0.30588,0.2653 -1.06825,0.63792 -1.69413,0.82803 -1.2111,0.36788 -2.72687,0.95486 -3.39709,1.31553 -0.22386,0.12048 -0.90847,0.30377 -1.52135,0.40732 -0.61286,0.10354 -1.1143,0.27198 -1.1143,0.37431 0,0.29365 -2.77063,1.61952 -3.38425,1.61952 -0.3043,0 -0.62685,0.11906 -0.71679,0.26458 -0.0899,0.14552 -0.50665,0.26459 -0.92604,0.26459 -0.41939,0 -0.82777,0.10556 -0.90749,0.23459 -0.0797,0.12902 -0.5928,0.31827 -1.14012,0.42055 -0.54729,0.10228 -1.11792,0.28736 -1.26801,0.41128 -0.1501,0.12393 -1.14967,0.40813 -2.22126,0.63156 -1.07159,0.22344 -2.14905,0.5879 -2.39437,0.80992 -0.24535,0.22201 -0.51465,0.3351 -0.59844,0.25129 -0.0838,-0.0838 -0.49088,0.0154 -0.90458,0.22047 -0.41371,0.20506 -1.46656,0.52272 -2.33969,0.7059 -0.87312,0.18319 -1.82562,0.48302 -2.11666,0.6663 -0.29105,0.18329 -0.88636,0.39661 -1.32292,0.47407 -0.43656,0.0774 -1.92484,0.46017 -3.30729,0.85048 -3.61778,1.02142 -4.81701,1.30475 -9.72344,2.29727 -0.76398,0.15455 -1.38906,0.38822 -1.38906,0.51928 0,0.13106 -0.56555,0.24113 -1.25677,0.2446 -0.69123,0.003 -1.73302,0.13258 -2.31511,0.28691 -1.76027,0.4667 -3.96322,0.72877 -9.92187,1.18033 -8.17928,0.61984 -14.98018,0.23851 -19.34758,-1.08482 -1.21878,-0.36929 -2.83115,-0.85974 -3.58307,-1.08987 -0.97541,-0.29855 -1.99281,-0.95926 -3.551,-2.30605 -1.82864,-1.58056 -2.3069,-2.16735 -2.94007,-3.6074 -0.68358,-1.55463 -0.74536,-1.93576 -0.64336,-3.96875 0.11197,-2.23211 0.52739,-4.44528 1.01049,-5.38357 0.13843,-0.26884 0.19561,-0.54484 0.12711,-0.61334 -0.0685,-0.0685 0.0925,-0.74094 0.35779,-1.49428 0.53549,-1.52051 0.48874,-1.79192 -0.20214,-1.17405 -0.25553,0.22854 -1.17901,0.79914 -2.05213,1.268 -0.87313,0.46885 -1.95887,1.20219 -2.41276,1.62964 -0.4539,0.42744 -0.98968,0.80335 -1.19063,0.83534 -0.20095,0.032 -0.66302,0.25323 -1.02682,0.49163 -0.3638,0.2384 -1.19724,0.6428 -1.85208,0.89865 -0.65485,0.25586 -1.48829,0.68103 -1.85209,0.94483 -1.15437,0.83706 -5.49838,2.33257 -6.77539,2.33257 -0.42096,0 -0.72293,-0.31542 -1.12901,-1.17931 -0.30488,-0.64862 -0.48847,-1.35096 -0.40796,-1.56074 0.26353,-0.68679 -0.33742,-0.70644 -1.80157,-0.0589 -0.7918,0.35017 -2.02499,0.72149 -2.74045,0.82515 -0.71546,0.10367 -1.41989,0.27526 -1.56541,0.38131 -0.75443,0.5498 -4.37896,1.4629 -6.80672,1.71476 -0.75282,0.0781 -1.45802,0.33727 -1.77197,0.65124 -0.28684,0.28683 -1.03381,0.65783 -1.65997,0.82444 -0.62614,0.16661 -1.51971,0.59136 -1.98575,0.94387 -0.46601,0.35253 -1.08029,0.7285 -1.36507,0.83551 -0.55528,0.20867 -3.58391,3.07081 -6.39318,6.04173 -1.52548,1.61327 -2.03425,2.39921 -2.89472,4.47159 -0.12084,0.29104 -0.41045,0.96388 -0.64355,1.49519 -0.71527,1.63023 -0.56978,2.53761 0.50901,3.17411 0.84248,0.49707 1.44838,1.20714 1.44838,1.69739 0,0.32676 -2.68232,-0.16111 -3.40254,-0.61887 -0.89104,-0.5663 -1.08633,-0.84749 -1.09133,-1.57139 -0.006,-0.79482 0.7589,-3.02084 1.21417,-3.53581 0.2031,-0.22974 0.36928,-0.61381 0.36928,-0.8535 0,-1.0825 3.5977,-5.86154 7.01186,-9.31425 1.45542,-1.47186 2.88316,-2.80871 3.17277,-2.97079 0.70231,-0.39302 0.42985,-0.60599 -0.82063,-0.64148 -0.60716,-0.0172 -1.48703,-0.31303 -2.14445,-0.72095 -1.09196,-0.67755 -1.28804,-1.10075 -1.14797,-2.47768 0.0597,-0.58715 -0.64611,-0.60247 -1.98488,-0.0431 -1.38268,0.57772 -3.09041,0.304 -3.96367,-0.63532 -0.58748,-0.63193 -0.64278,-0.86448 -0.49932,-2.0997 0.0887,-0.76398 0.0753,-1.38906 -0.0297,-1.38906 -0.10504,0 -0.80081,0.34868 -1.54614,0.77484 -1.5039,0.8599 -3.06727,1.43515 -5.05929,1.86157 -0.7276,0.15576 -1.56104,0.38953 -1.85208,0.51949 -1.68339,0.7517 -3.55333,1.0664 -7.28538,1.22607 -3.80749,0.16289 -4.19764,0.13482 -5.61682,-0.40409 -2.40096,-0.91172 -2.80503,-2.33889 -1.80972,-6.39203 0.59783,-2.43454 2.06156,-6.18371 2.58323,-6.61667 0.20762,-0.17231 0.67657,-0.96711 1.04209,-1.76622 0.36552,-0.79911 0.99849,-1.94114 1.40661,-2.53784 0.96625,-1.41273 1.68306,-2.82002 1.51966,-2.98343 -0.0712,-0.0712 -0.88368,0.36336 -1.80544,0.96581 -0.92176,0.60244 -2.00332,1.16294 -2.4035,1.24554 -0.40018,0.0826 -0.72761,0.24272 -0.72761,0.35581 0,0.1131 -0.32742,0.33788 -0.7276,0.49953 -0.40018,0.16164 -1.32292,0.63413 -2.05052,1.04998 -0.7276,0.41585 -2.06706,1.1323 -2.97656,1.59211 -0.90951,0.45981 -1.65365,0.92869 -1.65365,1.04195 0,0.21846 -3.11756,1.70952 -4.23333,2.02471 -0.3638,0.10277 -1.27916,0.47274 -2.03415,0.82215 -0.75496,0.34942 -1.55273,0.6353 -1.77278,0.6353 -0.22006,0 -0.49533,0.15793 -0.61169,0.35095 -0.11637,0.19302 -0.8069,0.50939 -1.53451,0.70305 -0.7276,0.19365 -1.76466,0.57151 -2.30457,0.83967 -0.53991,0.26817 -1.21748,0.48758 -1.50572,0.48758 -0.28826,0 -0.58759,0.10273 -0.66519,0.22829 -0.0776,0.12556 -0.70972,0.37975 -1.40467,0.56487 -0.69498,0.18512 -1.50172,0.47695 -1.79276,0.64851 -0.29105,0.17156 -1.24355,0.47281 -2.11667,0.66944 -0.87313,0.19663 -1.77956,0.52015 -2.01427,0.71892 -0.23474,0.19877 -0.71099,0.41602 -1.05834,0.48277 -0.84897,0.16317 -2.56296,2.21113 -3.42767,4.09553 -0.16696,0.36381 -0.40979,0.8682 -0.53965,1.12089 -0.12986,0.25269 -0.23611,0.64126 -0.23611,0.86349 0,0.36913 -0.23075,0.91645 -0.83656,1.98437 -0.12383,0.21828 -0.29647,0.57547 -0.38362,0.79375 -0.0872,0.21828 -0.4436,1.02521 -0.79209,1.79317 -0.34845,0.76797 -0.63357,1.49729 -0.63357,1.62073 0,0.12343 -0.30167,0.92385 -0.6704,1.7787 -0.99607,2.30928 -1.07844,2.50837 -1.57385,3.80324 -0.2505,0.65484 -0.56022,1.36922 -0.68826,1.5875 -0.128,0.21828 -0.54498,1.02984 -0.92659,1.80348 -0.38161,0.77362 -1.21725,2.35283 -1.85696,3.50935 -0.6397,1.15651 -1.1631,2.32319 -1.1631,2.59261 0,0.26943 -0.23813,0.79259 -0.52917,1.16259 -0.29104,0.37 -0.52917,0.96941 -0.52917,1.33201 0,0.6823 -1.2429,2.80132 -2.59056,4.41663 -0.42492,0.50933 -0.92623,1.22369 -1.114,1.5875 -0.1878,0.36381 -0.50266,0.75668 -0.69969,0.87305 -0.19704,0.11637 -0.35973,0.35449 -0.36155,0.52916 -0.005,0.47649 -5.00791,5.46746 -5.49614,5.48297 -0.10401,0.003 -0.37711,0.39026 -0.6069,0.8599 -0.22979,0.46963 -0.73581,1.00921 -1.12448,1.19905 -0.38867,0.18984 -0.70668,0.50668 -0.70668,0.70408 0,0.48647 -1.38409,1.61688 -2.95336,2.41209 -0.70971,0.35965 -2.24869,1.60321 -3.41992,2.76347 -1.17123,1.16026 -2.24541,2.10957 -2.3871,2.10957 -0.14166,0 -0.51318,0.23812 -0.82558,0.52916 -0.31239,0.29105 -0.7579,0.52917 -0.99002,0.52917 -0.23211,0 -1.34291,0.8743 -2.46845,1.9429 -1.44174,1.36882 -2.72751,2.2874 -4.3516,3.10885 -1.26786,0.64127 -2.60395,1.43385 -2.96908,1.76126 -0.36512,0.32742 -0.76711,0.59532 -0.89331,0.59532 -0.38317,0 -3.58063,1.5866 -3.7501,1.86083 -0.0871,0.14087 -0.68702,0.38926 -1.33324,0.55197 -0.64619,0.16271 -1.1749,0.39131 -1.1749,0.50801 0,0.11668 -0.35719,0.2906 -0.79375,0.38648 -0.43657,0.0959 -0.79375,0.28394 -0.79375,0.4179 0,0.13396 -0.12409,0.24356 -0.27575,0.24356 -0.15166,0 -0.41955,0.12803 -0.59532,0.2845 -0.46701,0.41578 -2.25877,1.4631 -3.62685,2.11999 -0.65485,0.31442 -1.905,0.91412 -2.77813,1.33266 -0.87312,0.41853 -1.78128,0.76093 -2.01813,0.76087 -0.23683,-6e-5 -0.57621,0.17534 -0.75417,0.38977 -0.17796,0.21443 -0.75808,0.46583 -1.28918,0.55866 -1.09956,0.19219 -3.14058,0.77938 -4.60897,1.32598 -0.54866,0.20423 -1.3821,0.36867 -1.85208,0.36544 l -0.85455,-0.006 0.61997,-0.47687 z m 163.01972,-67.27308 c 1.94543,-0.74277 3.82077,-1.64464 3.92975,-1.88984 0.0485,-0.10914 0.26826,-0.19844 0.48834,-0.19844 0.22006,0 0.77401,-0.26789 1.231,-0.59531 0.91972,-0.65899 1.26968,-0.8568 4.1456,-2.34321 1.09141,-0.56409 2.51246,-1.49541 3.15791,-2.06958 l 1.17353,-1.04396 -0.68321,-0.31129 c -0.56073,-0.25549 -0.96086,-0.21678 -2.23186,0.21591 -0.85178,0.28997 -2.14397,0.61174 -2.87158,0.71505 -0.7276,0.10331 -1.73963,0.39495 -2.24896,0.64808 -2.32963,1.15783 -3.32454,1.61072 -3.53695,1.61004 -0.12631,-5.2e-4 -0.61513,0.32669 -1.0863,0.72687 -0.47114,0.40019 -1.17718,0.95694 -1.56898,1.23723 -0.78795,0.56371 -2.27443,2.63139 -2.27443,3.16371 0,0.84231 0.45526,0.86813 2.37614,0.13474 z m -93.39281,0.0284 c 0,-0.14552 -0.1261,-0.26458 -0.2802,-0.26458 -0.15412,0 -0.20661,0.11906 -0.11668,0.26458 0.0899,0.14552 0.21603,0.26458 0.2802,0.26458 0.0642,0 0.11668,-0.11906 0.11668,-0.26458 z m 117.5667,-14.43892 c 1.04098,-0.81088 2.67862,-2.03127 3.63922,-2.71198 1.60816,-1.13958 2.68449,-2.03703 6.42051,-5.35352 0.74686,-0.663 1.89373,-1.61059 2.54857,-2.10575 0.65484,-0.49516 2.11995,-1.79818 3.25578,-2.89558 1.13585,-1.09741 2.18083,-2.03604 2.32219,-2.08585 0.14134,-0.0498 0.50935,-0.58518 0.81778,-1.18973 0.30842,-0.60456 1.22795,-1.78878 2.04345,-2.63161 0.81548,-0.84283 1.67024,-1.94273 1.8995,-2.44423 0.22926,-0.5015 0.80304,-1.33625 1.27511,-1.85499 0.8251,-0.90674 1.12551,-1.5408 1.46357,-3.08923 0.11932,-0.54655 0.0306,-0.78446 -0.37344,-1.00066 -0.41825,-0.22385 -0.84389,-0.14005 -2.01911,0.3975 -0.81902,0.37463 -1.87275,0.97375 -2.34164,1.33139 -0.46887,0.35763 -0.98208,0.65024 -1.14044,0.65024 -0.15835,0 -0.36107,0.20836 -0.45048,0.46302 -0.0894,0.25467 -0.66296,0.86265 -1.27457,1.35108 -1.74509,1.39356 -7.94097,7.47567 -8.45037,8.29519 -0.25252,0.40625 -0.63947,0.73863 -0.8599,0.73863 -0.22042,0 -0.40076,0.0915 -0.40076,0.20329 0,0.23255 -2.69934,3.61264 -4.38306,5.48842 -0.44614,0.49704 -1.27958,1.57667 -1.85209,2.39917 -0.57248,0.82251 -1.33855,1.82537 -1.70235,2.22858 -1.80055,1.99562 -3.33251,5.29096 -2.45968,5.29096 0.0712,0 0.98124,-0.66345 2.02221,-1.47434 z m -64.12087,-16.51277 c 0.65485,-0.53458 1.72641,-1.33818 2.38125,-1.78577 0.65485,-0.4476 2.20959,-1.68845 3.45501,-2.75745 1.24539,-1.069 2.93055,-2.45526 3.74475,-3.08057 0.84,-0.64514 1.55253,-1.42445 1.64719,-1.80158 0.0918,-0.36555 0.61905,-1.16361 1.17176,-1.77348 1.02945,-1.13588 2.01766,-3.19779 1.74448,-3.63982 -0.38438,-0.62194 -1.9736,0.17081 -1.9736,0.98449 0,0.19573 -0.11105,0.35587 -0.24676,0.35587 -0.1357,0 -0.31345,0.20836 -0.39497,0.46302 -0.0815,0.25466 -0.69545,0.80807 -1.36427,1.2298 -0.66884,0.42173 -1.33596,1.02996 -1.48251,1.35162 -0.53737,1.17939 -4.75448,4.71094 -6.33497,5.30513 -0.23694,0.0891 -0.56383,0.45398 -0.72647,0.81092 -0.16264,0.35694 -0.41346,0.79334 -0.55742,0.96976 -1.20256,1.47386 -1.59264,2.01716 -1.59264,2.21825 0,0.30589 -1.3495,1.7284 -1.98053,2.08766 -0.30076,0.17123 -0.41413,0.40933 -0.2903,0.60969 0.23473,0.37979 0.86746,0.0301 2.8,-1.54754 z m -537.75809,97.03138 c -0.30391,-0.43145 -0.47553,-0.50538 -0.62347,-0.26857 -0.38191,0.6113 -1.71053,0.65396 -2.62522,0.0843 -0.95076,-0.59214 -1.07121,-1.22687 -0.5732,-3.02044 0.15606,-0.56205 0.38481,-1.57408 0.50832,-2.24896 0.41096,-2.24548 2.36142,-8.47958 3.572,-11.4169 0.65717,-1.59453 1.37654,-3.76287 1.59861,-4.81854 0.22206,-1.05567 1.11377,-3.56831 1.98156,-5.58365 0.8678,-2.01533 1.57781,-3.78832 1.57781,-3.93997 0,-0.15165 0.69565,-1.54008 1.54589,-3.0854 0.85024,-1.54532 1.69927,-3.46452 1.88674,-4.26488 0.18746,-0.80037 0.56338,-1.92406 0.83536,-2.4971 0.27198,-0.57303 0.49451,-1.13648 0.49451,-1.25211 0,-0.11562 0.49319,-1.01599 1.09597,-2.00082 0.60278,-0.98483 1.0667,-1.82547 1.03093,-1.86809 -0.0884,-0.10533 0.41178,-1.41428 1.36588,-3.5745 0.43723,-0.98996 0.73434,-2.03176 0.66024,-2.31511 -0.0741,-0.28336 -0.044,-0.5152 0.0668,-0.5152 0.19193,0 3.96268,-7.42716 4.90299,-9.65729 0.24543,-0.58208 0.55331,-1.23692 0.68417,-1.4552 0.13086,-0.21829 0.67021,-1.25669 1.19855,-2.30757 0.52835,-1.05088 1.12574,-2.04772 1.32755,-2.21521 0.20181,-0.16748 0.36693,-0.45161 0.36693,-0.63138 0,-0.17978 0.41672,-1.12635 0.92604,-2.1035 0.50933,-0.97715 0.92604,-1.82751 0.92604,-1.88969 0,-0.30921 -1.03963,-0.0569 -1.35666,0.3292 -0.31604,0.38492 -1.79253,1.42657 -4.82658,3.40511 -0.45552,0.29705 -1.364,0.76509 -2.01884,1.04008 -0.65484,0.275 -1.31217,0.64248 -1.46073,0.81664 -0.29061,0.34067 -4.14925,2.2334 -4.55316,2.2334 -0.13413,0 -0.52478,0.29901 -0.86811,0.66447 -0.73529,0.78269 -2.89771,1.82135 -4.36499,2.09661 -1.10536,0.20737 -2.2343,0.71558 -2.81701,1.26813 -0.4117,0.3904 -2.794,1.26569 -3.43961,1.26376 -0.2409,-7.9e-4 -0.93016,0.40989 -1.5317,0.91246 -0.60154,0.50258 -1.24857,0.85435 -1.43785,0.78171 -0.18928,-0.0726 -0.49686,0.052 -0.68351,0.27686 -0.20624,0.24849 -0.76967,0.40892 -1.43618,0.40892 -0.725209,0 -1.417029,0.21759 -2.041959,0.64224 -0.51983,0.35323 -1.58926,0.83808 -2.37652,1.07743 -0.78726,0.23935 -1.63812,0.54565 -1.89081,0.68067 -0.25269,0.13502 -0.68255,0.24549 -0.95526,0.24549 -0.27271,0 -0.92583,0.2918 -1.45138,0.64844 -0.9003,0.61096 -3.0324,1.46822 -3.65163,1.46822 -0.30315,0 -1.43329,0.46686 -3.53647,1.4609 -0.7276,0.3439 -1.7085,0.70082 -2.17977,0.79317 -0.47128,0.0924 -0.92479,0.2778 -1.00781,0.41213 -0.083,0.13432 -0.41775,0.24423 -0.74386,0.24423 -0.32611,0 -0.706041,0.0948 -0.844281,0.21057 -0.13825,0.11581 -0.72761,0.37072 -1.30969,0.56645 -0.58209,0.19574 -1.11787,0.43661 -1.19063,0.53528 -0.31718,0.43012 -2.7117,1.37802 -3.175,1.25687 -0.28034,-0.0733 -0.64137,0.0254 -0.8023,0.21926 -0.16093,0.1939 -0.62993,0.42664 -1.04222,0.5172 -0.41229,0.0906 -1.20315,0.39586 -1.75745,0.67846 -0.55431,0.2826 -1.33282,0.51382 -1.73002,0.51382 -0.39721,0 -0.80174,0.12871 -0.89897,0.28603 -0.0972,0.15731 -0.45414,0.2164 -0.79315,0.13132 -0.339,-0.0851 -0.69023,-0.0352 -0.78049,0.11085 -0.0903,0.14605 -0.44108,0.26555 -0.77959,0.26555 -0.58135,0 -2.82576,0.59928 -3.98352,1.06364 -0.29104,0.11673 -1.30307,0.35296 -2.24895,0.52496 -0.945889,0.172 -2.315109,0.53441 -3.042709,0.80536 -1.98798,0.74029 -4.09236,1.28829 -5.42396,1.41245 -2.63134,0.24534 -4.23333,0.5101 -4.23333,0.69963 0,0.37697 -0.92922,0.56376 -3.43959,0.69145 -1.38245,0.0703 -2.93474,0.28778 -3.44953,0.48326 -0.514801,0.19548 -2.290931,0.49087 -3.946971,0.65643 -1.65603,0.16556 -3.10242,0.35753 -3.21419,0.42661 -0.447,0.27626 -6.69677,0.88204 -10.63007,1.03036 -3.18874,0.12024 -4.72023,0.0599 -6.4823,-0.2553 -2.15924,-0.38628 -4.84186,-1.33571 -5.04117,-1.78416 -0.0485,-0.10914 -0.2331,-0.19844 -0.41021,-0.19844 -0.4515303,0 -3.3380603,-2.61535 -3.3380603,-3.02446 0,-0.18497 -0.28858,-0.87905 -0.64129,-1.54241 -0.35271,-0.66335 -0.5887,-1.25869 -0.52443,-1.32296 0.0643,-0.0643 -0.0573,-0.45243 -0.27003,-0.86258 -0.22314,-0.43008 -0.30051,-0.9227 -0.18281,-1.16384 1.64264,-3.36548 1.71078,-3.46722 2.21523,-3.30712 0.4823,0.15308 0.48579,0.12907 0.0729,-0.50113 -0.2866,-0.43742 -0.33909,-0.72039 -0.15474,-0.83432 0.15343,-0.0948 0.27896,-0.0134 0.27896,0.18093 0,0.249 0.29424,0.32528 0.99646,0.25831 0.88855,-0.0847 1.08379,0.0148 1.8028003,0.91905 0.44349,0.55774 0.89232,1.15843 0.99739,1.33487 0.29638,0.49765 -0.36348,3.79931 -0.79219,3.96382 -0.8585403,0.32946 3.09523,4.3838 4.63237,4.7502 0.38365,0.0914 0.81661,0.25172 0.96213,0.35616 0.46938,0.33687 1.54777,0.57804 3.30729,0.73965 2.77159,0.25457 10.88709,0.14285 12.03854,-0.16572 0.58209,-0.15599 1.68972,-0.31058 2.4614,-0.34354 0.77169,-0.033 1.46453,-0.15936 1.53964,-0.2809 0.0751,-0.12153 0.22588,-0.16578 0.33504,-0.0983 0.10915,0.0675 1.44038,-0.0559 2.95828,-0.27406 1.517901,-0.2182 3.771841,-0.49254 5.008771,-0.60964 1.23693,-0.11711 3.02286,-0.40371 3.96875,-0.63689 0.945879,-0.23319 2.85088,-0.61794 4.23333,-0.85501 1.38245,-0.23706 3.04933,-0.66588 3.70417,-0.95291 0.65484,-0.28703 2.19606,-0.69788 3.42492,-0.91299 1.228869,-0.21511 2.359959,-0.4858 2.513539,-0.60153 0.51575,-0.38864 3.96511,-1.33824 5.96779,-1.64292 1.09141,-0.16605 2.44623,-0.53696 3.01072,-0.82425 0.56449,-0.28729 2.09879,-0.87577 3.40957,-1.30772 1.31078,-0.43197 3.05158,-1.12091 3.86845,-1.531 0.81687,-0.41009 2.37819,-1.04448 3.469591,-1.40975 1.09141,-0.36528 3.05594,-1.14586 4.36563,-1.73463 1.30969,-0.58877 2.73844,-1.15821 3.175,-1.26542 0.43656,-0.10722 1.68672,-0.63973 2.77813,-1.18337 1.09142,-0.54364 2.56043,-1.07481 3.26448,-1.18039 0.70405,-0.10558 2.01373,-0.58001 2.9104,-1.05429 0.89668,-0.47427 2.312849,-1.00297 3.147059,-1.17488 0.83421,-0.17191 1.59359,-0.43691 1.68752,-0.58888 0.24266,-0.39263 2.88333,-1.52927 4.59778,-1.97906 0.79862,-0.20951 1.69159,-0.59116 1.98437,-0.8481 0.62141,-0.54533 2.29225,-1.26127 3.4823,-1.49213 0.4583,-0.0889 1.61106,-0.68328 2.56169,-1.32083 0.95063,-0.63755 2.39396,-1.47404 3.2074,-1.85886 0.81345,-0.38482 1.80381,-0.96272 2.2008,-1.28422 0.397,-0.3215 1.49573,-0.98779 2.44161,-1.48066 0.94589,-0.49286 2.73182,-1.57558 3.96875,-2.40603 1.23693,-0.83044 3.02987,-1.87853 3.98431,-2.32908 1.99149,-0.94009 2.56113,-1.48414 3.54212,-3.38292 0.38747,-0.74998 1.43348,-2.04803 2.32449,-2.88456 1.51301,-1.42053 1.66932,-1.50236 2.36683,-1.23908 0.47426,0.17902 0.74683,0.18701 0.74683,0.0219 0,-0.143 0.2679,-0.22195 0.59532,-0.17545 0.50791,0.0721 0.59266,0.24015 0.57725,1.14443 -0.0161,0.94623 -0.19579,1.2294 -1.67558,2.64087 -1.52969,1.45908 -4.3856,5.28837 -5.31985,7.13301 -0.21717,0.42877 -0.66273,1.07124 -0.99016,1.4277 -0.32742,0.35645 -0.59531,0.76805 -0.59531,0.91466 0,0.14661 -0.3064,0.91424 -0.68088,1.70583 -0.37449,0.7916 -0.61549,1.50466 -0.53556,1.58459 0.18718,0.18718 0.95186,-0.44288 0.95186,-0.7843 0,-0.14314 0.29687,-0.49377 0.65972,-0.77918 0.78499,-0.61747 3.04444,-3.50278 3.04444,-3.88774 0,-0.14832 0.21991,-0.42526 0.48868,-0.61541 0.26878,-0.19015 0.98853,-0.94105 1.59945,-1.66865 1.55935,-1.85717 2.73873,-3.04271 3.02691,-3.04271 0.13515,0 0.82577,-0.41672 1.53471,-0.92604 0.70894,-0.50932 1.43753,-0.93008 1.6191,-0.93502 0.18156,-0.005 0.80636,-0.23902 1.38845,-0.52019 2.02845,-0.97981 4.32142,-0.55995 4.84468,0.8871 0.38105,1.05377 0.41057,2.61536 0.0561,2.96979 -0.14221,0.1422 -0.50037,0.96139 -0.79591,1.82041 -0.29555,0.85902 -0.74474,1.79533 -0.99822,2.0807 -0.45082,0.50754 -0.439,0.51484 0.54206,0.33517 0.5516,-0.10102 1.54374,-0.4155 2.20475,-0.69884 0.661,-0.28334 1.35597,-0.51516 1.54437,-0.51516 0.1884,0 0.49076,-0.1786 0.67192,-0.39688 0.18116,-0.21828 0.49704,-0.39687 0.70197,-0.39687 0.20492,0 1.23214,-0.48962 2.28271,-1.08804 1.05056,-0.59842 2.38636,-1.15202 2.96844,-1.23023 0.58209,-0.0782 2.01084,-0.66547 3.175,-1.30503 2.70115,-1.48392 2.97345,-1.65029 4.13808,-2.52826 0.53083,-0.40019 1.1418,-0.72761 1.35771,-0.72761 0.98385,0 1.03997,1.30375 0.0901,2.0921 -0.23456,0.19467 -0.42647,0.67977 -0.42647,1.07801 0,0.39824 -0.36321,1.42546 -0.80714,2.28271 -0.44393,0.85725 -0.8677,2.01952 -0.94172,2.58281 -0.074,0.56329 -0.34979,1.63485 -0.61282,2.38124 -0.26303,0.7464 -0.4877,1.65475 -0.49928,2.01855 -0.0116,0.3638 -0.0924,1.04841 -0.17953,1.52135 -0.22152,1.20187 0.42285,1.14013 1.37338,-0.13159 0.40759,-0.54531 1.33412,-1.52758 2.05895,-2.18281 3.37538,-3.05123 8.89186,-8.26861 12.19574,-11.53451 3.23298,-3.19579 3.71095,-3.57462 4.32114,-3.42479 0.37734,0.0927 2.09774,0.28598 3.82312,0.42961 2.37973,0.1981 3.43364,0.40964 4.36562,0.87624 0.67572,0.33829 2.24061,0.76264 3.47754,0.94298 1.23693,0.18034 3.00564,0.55397 3.93048,0.83029 1.15959,0.34646 2.49481,0.5024 4.30176,0.5024 2.49151,0 2.6741,-0.039 3.716,-0.79375 1.17381,-0.85031 2.07394,-0.97471 3.72832,-0.51526 0.7192,0.19973 0.99219,0.41952 0.99219,0.79882 0,0.60799 -0.65725,0.90714 -2.47668,1.12728 -0.70733,0.0856 -1.4217,0.3175 -1.5875,0.51537 -0.53218,0.63515 -3.42948,2.30712 -3.99791,2.30712 -0.15251,0 -0.42534,0.23708 -0.6063,0.52683 -0.18096,0.28977 -1.10257,0.90401 -2.04802,1.36499 -0.94546,0.46099 -1.71901,0.92538 -1.71901,1.03199 0,0.1066 -0.27498,0.26284 -0.61106,0.34719 -0.33608,0.0844 -0.99654,0.63304 -1.46768,1.21931 -0.47113,0.58626 -1.03333,1.06594 -1.24932,1.06594 -0.21599,0 -0.46411,0.18607 -0.55138,0.41349 -0.0873,0.22743 -1.10197,0.96159 -2.25488,1.63148 -2.65262,1.54128 -3.29934,2.50943 -1.86932,2.79843 1.30747,0.26423 7.16823,4.48873 11.87359,8.5586 0.89154,0.77114 2.20687,1.79185 2.92295,2.26826 0.71608,0.47641 1.86658,1.34245 2.55665,1.92453 0.69007,0.58208 1.69646,1.29646 2.23642,1.5875 0.53996,0.29105 1.3995,0.84881 1.91009,1.23949 1.65555,1.26672 7.16993,3.47532 9.42058,3.77309 0.711,0.0941 1.76102,0.29511 2.3334,0.44675 1.05153,0.2786 3.4617,0.17094 7.37256,-0.32932 1.42764,-0.18262 2.44644,-0.48967 3.30729,-0.99676 2.01552,-1.18727 3.7234,-1.76077 4.10062,-1.37698 0.24903,0.25337 0.1823,0.43526 -0.30618,0.83439 -0.34353,0.28071 -0.83243,0.51039 -1.08643,0.51039 -0.254,0 -1.00817,0.41717 -1.67595,0.92706 -1.36078,1.03904 -2.28949,1.45419 -3.2531,1.45419 -0.35888,0 -0.7165,0.16668 -0.79468,0.37041 -0.0829,0.21596 -0.5134,0.37042 -1.03248,0.37042 -0.48969,0 -1.04683,0.0967 -1.23809,0.21493 -0.82815,0.51181 -5.78388,0.56942 -9.21235,0.1071 -1.38244,-0.18642 -3.67123,-0.67325 -5.08619,-1.08184 -2.67835,-0.77343 -6.77794,-2.59996 -7.33087,-3.26621 -0.17573,-0.21173 -0.65837,-0.4594 -1.07255,-0.55036 -0.41418,-0.091 -1.09056,-0.46706 -1.50307,-0.83574 -0.41251,-0.36869 -2.4169,-1.91222 -4.45419,-3.43008 -2.03729,-1.51785 -4.01733,-3.02465 -4.40007,-3.34845 -0.38275,-0.3238 -0.9689,-0.76732 -1.30256,-0.98561 -0.33366,-0.21828 -1.03253,-0.76853 -1.55305,-1.22278 -1.53595,-1.34039 -4.04241,-3.01055 -4.51805,-3.01055 -0.24266,0 -0.52605,-0.0848 -0.62975,-0.18855 -0.10371,-0.1037 -0.6891,-0.37495 -1.30087,-0.60277 -0.90603,-0.33739 -1.28407,-0.35671 -2.03836,-0.10416 -0.76279,0.25539 -1.05001,0.23752 -1.62926,-0.10133 -0.59315,-0.34699 -0.65566,-0.48754 -0.39938,-0.89791 0.16712,-0.26759 0.44409,-0.48653 0.6155,-0.48653 0.1714,0 0.56919,-0.41672 0.88397,-0.92604 0.31478,-0.50932 0.71145,-0.92677 0.88148,-0.92765 0.68714,-0.004 3.7764,-2.41017 4.31659,-3.3627 0.39192,-0.69108 0.8018,-1.04496 1.32292,-1.14219 0.48597,-0.0907 0.73132,-0.28555 0.68844,-0.54684 -0.0464,-0.28291 0.3897,-0.54982 1.43868,-0.88048 1.00354,-0.31634 1.84495,-0.81756 2.52424,-1.50368 0.56041,-0.56604 1.16316,-1.03364 1.33944,-1.0391 0.17628,-0.005 0.76655,-0.39242 1.31172,-0.8599 l 0.99122,-0.84996 h -2.71101 c -1.5497,0 -3.22104,-0.1561 -3.90163,-0.3644 -1.83446,-0.56145 -4.8208,-1.65618 -5.55625,-2.0368 -0.7682,-0.39756 -4.26496,-1.43526 -4.83646,-1.43526 -0.44075,0 -1.44042,0.80318 -3.62247,2.91042 -0.82877,0.80036 -2.08329,1.87193 -2.78781,2.38125 -0.70451,0.50932 -2.03646,1.61065 -2.95988,2.44739 -0.92341,0.83675 -1.78486,1.52136 -1.91434,1.52136 -0.12947,0 -1.2603,1.0272 -2.51295,2.28267 -1.81141,1.81549 -2.33716,2.51945 -2.56885,3.43958 -0.22071,0.87651 -0.41776,1.15691 -0.81302,1.15691 -0.28694,0 -1.15107,0.53769 -1.9203,1.19486 -0.91324,0.78021 -1.54704,1.13789 -1.82637,1.0307 -0.23528,-0.0903 -0.91732,0.091 -1.51564,0.40287 l -1.08786,0.56702 -0.89828,-0.68514 c -0.77179,-0.58867 -0.89769,-0.8416 -0.89414,-1.79617 0.002,-0.61105 0.18792,-1.82539 0.41255,-2.69851 0.22464,-0.87313 0.58695,-2.30188 0.80514,-3.175 0.21819,-0.87313 0.68738,-2.03143 1.04265,-2.57401 0.35527,-0.54259 0.64594,-1.05342 0.64594,-1.1352 0,-0.0818 0.25943,-0.49958 0.57652,-0.92846 0.31709,-0.42888 0.49707,-0.85923 0.39997,-0.95633 -0.17041,-0.17041 -2.62826,0.72773 -4.81295,1.75873 -0.58208,0.2747 -1.82461,0.74481 -2.76117,1.04469 -0.93657,0.29988 -1.98869,0.73253 -2.33806,0.96144 -0.34937,0.22892 -0.6986,0.35284 -0.77605,0.27538 -0.0775,-0.0775 -0.31376,0.0321 -0.52511,0.24344 -0.21136,0.21135 -0.59154,0.38428 -0.84485,0.38428 -0.25332,0 -0.95343,0.23812 -1.55582,0.52916 -0.60239,0.29105 -1.22598,0.52917 -1.38575,0.52917 -0.47122,0 -1.96626,0.83514 -2.1956,1.22647 -0.11638,0.19857 -0.4963,0.36103 -0.84428,0.36103 -0.34799,0 -0.70629,0.11906 -0.79622,0.26458 -0.0899,0.14553 -0.37857,0.26459 -0.6414,0.26459 -0.26282,0 -0.76676,0.22724 -1.11986,0.50499 -0.47008,0.36976 -1.2933,0.55594 -3.07427,0.69526 -3.47197,0.27161 -4.83538,-0.39048 -3.86231,-1.87557 0.45396,-0.69283 0.76224,-0.80804 1.02492,-0.38302 0.0899,0.14553 0.44712,0.26459 0.79375,0.26459 0.34663,0 0.70381,-0.11906 0.79375,-0.26459 0.0899,-0.14552 0.60298,-0.26467 1.14009,-0.26479 0.97896,-2.1e-4 4.06247,-1.27959 4.3999,-1.82556 0.0989,-0.15999 0.38752,-0.2909 0.64143,-0.2909 0.65741,0 1.99843,-1.52202 2.51072,-2.84962 0.54544,-1.41349 0.57527,-3.58457 0.0552,-4.0162 -0.30416,-0.25243 -0.7669,-0.12583 -2.29922,0.62906 -1.05513,0.5198 -2.0838,0.9451 -2.28592,0.9451 -0.55758,0 -3.43768,2.60797 -4.31392,3.90632 -0.42587,0.63101 -0.7743,1.18732 -0.7743,1.23624 0,0.0489 -0.5902,0.7176 -1.31156,1.48594 -0.72135,0.76834 -1.38653,1.73833 -1.47816,2.15555 -0.0916,0.4172 -0.52243,1.14155 -0.95732,1.60965 -0.43488,0.4681 -1.0728,1.39966 -1.41759,2.07014 -0.34479,0.67048 -0.93114,1.58064 -1.30301,2.02257 -0.37186,0.44194 -0.67611,0.96809 -0.67611,1.16923 0,0.20114 -0.68461,1.10553 -1.52136,2.00976 -2.12672,2.29825 -2.91734,3.41163 -3.11234,4.38293 -0.22695,1.13044 -0.8246,2.41184 -1.31455,2.81845 -0.22096,0.18339 -0.40175,0.44642 -0.40175,0.58452 0,0.13809 -0.1786,0.42968 -0.39688,0.64796 -0.21828,0.21828 -0.39687,0.73098 -0.39687,1.13933 0,0.40835 -0.16425,0.87876 -0.36499,1.04537 -0.20074,0.1666 -0.43225,0.6392 -0.51445,1.05021 -0.13914,0.69568 -0.40786,1.1915 -1.96483,3.6254 -0.32743,0.51183 -0.59576,1.13367 -0.59631,1.38187 -5.2e-4,0.2482 -0.21874,0.80846 -0.48489,1.24502 -0.26614,0.43657 -0.56674,1.31216 -0.668,1.94576 -0.10125,0.6336 -0.47779,1.53706 -0.83675,2.00769 -0.35897,0.47062 -0.58379,0.92456 -0.49961,1.00874 0.0842,0.0842 -0.33069,1.07124 -0.92194,2.19346 -0.59124,1.12222 -1.01523,2.13708 -0.9422,2.25525 0.073,0.11817 -0.12064,0.45095 -0.43039,0.73953 -0.30974,0.28857 -0.48073,0.65807 -0.37996,0.82111 0.10076,0.16304 0.0695,0.44005 -0.0695,0.61558 -0.29277,0.36969 -1.28418,3.53277 -1.78804,5.70471 -0.19057,0.82147 -0.54576,2.20797 -0.78932,3.08109 -0.24356,0.87313 -0.538,2.18281 -0.65432,2.91042 -0.11631,0.7276 -0.29427,1.62057 -0.39545,1.98437 -0.59062,2.12361 -1.25905,4.169 -1.5109,4.6233 -0.41299,0.745 -0.84536,4.36256 -0.85466,7.15066 -0.006,1.80469 -0.10523,2.45929 -0.40976,2.70357 -0.56355,0.45203 -0.71167,0.42009 -1.18803,-0.25617 z m 276.60094,-31.7766 c -0.0654,-0.0605 -0.71422,-0.18485 -1.44182,-0.27627 -2.62154,-0.32938 -5.77477,-1.36926 -9.84819,-3.24776 -1.0509,-0.48463 -2.04192,-0.88114 -2.20228,-0.88114 -0.16037,0 -2.31569,-1.3708 -4.78962,-3.04621 -2.47394,-1.67542 -4.6083,-2.97808 -4.74306,-2.8948 -0.13472,0.0833 -0.24497,-0.005 -0.24497,-0.19651 0,-0.19135 -1.63711,-1.87957 -3.63803,-3.7516 -3.90305,-3.65165 -10.0603,-10.00005 -12.77112,-13.1676 -0.91614,-1.07053 -1.82562,-2.04163 -2.02102,-2.158 -0.19539,-0.11637 -0.35525,-0.43601 -0.35525,-0.71031 0,-0.2743 -0.80952,-2.08409 -1.7989,-4.02175 -0.98941,-1.93766 -2.05436,-4.1481 -2.3666,-4.91208 -0.31223,-0.76399 -0.72667,-1.38906 -0.92098,-1.38906 -0.8032,0 -3.11561,3.13638 -3.11561,4.22576 0,0.27803 -0.12869,0.58504 -0.28596,0.68225 -0.16033,0.0991 -0.24751,0.71107 -0.19843,1.39283 0.0774,1.07479 0.009,1.2606 -0.59182,1.5991 -0.60585,0.34156 -0.79907,0.33018 -1.78594,-0.10522 -0.60862,-0.26853 -1.10519,-0.55461 -1.10345,-0.63575 0.0124,-0.58819 0.88424,-3.15245 1.68373,-4.95288 0.52742,-1.18774 0.95896,-2.24649 0.95896,-2.35276 0,-0.22662 2.0892,-4.70391 3.48104,-7.4601 0.53277,-1.05503 0.92012,-1.91823 0.8608,-1.91823 -0.0593,0 -0.60828,0.48559 -1.21984,1.0791 -0.61158,0.59351 -1.43923,1.24835 -1.83925,1.4552 -0.4,0.20686 -0.82251,0.53309 -0.93887,0.72497 -0.11637,0.19188 -0.86643,0.77916 -1.6668,1.30507 -0.80036,0.52592 -1.80491,1.32143 -2.23231,1.76781 -0.42741,0.44638 -0.91496,0.8116 -1.08347,0.8116 -0.16852,0 -0.52187,0.23812 -0.78526,0.52916 -0.26339,0.29104 -0.63489,0.52917 -0.82555,0.52917 -0.19066,0 -0.75348,0.35719 -1.25069,0.79375 -0.49723,0.43656 -0.97761,0.79375 -1.06754,0.79375 -0.0899,0 -0.63976,0.47625 -1.22184,1.05833 -0.58209,0.58209 -1.3131,1.05834 -1.62449,1.05834 -0.31136,0 -0.69832,0.17636 -0.8599,0.39193 -0.16155,0.21556 -0.55001,0.42947 -0.86325,0.47535 -0.31322,0.0459 -0.72994,0.2064 -0.92605,0.3567 -0.19608,0.1503 -0.83277,0.47794 -1.41486,0.72808 -0.58208,0.25015 -1.29645,0.5867 -1.5875,0.74789 -1.79488,0.99408 -4.89362,2.32713 -5.40956,2.32713 -0.25046,0 -0.53697,0.0816 -0.63669,0.18133 -0.29367,0.29366 -2.1058,0.8687 -2.75114,0.87302 -0.32742,0.002 -0.84656,0.25524 -1.15366,0.56232 -0.45514,0.45516 -0.67033,0.50733 -1.16422,0.28229 -0.75886,-0.34576 -1.07056,-0.085 -0.45615,0.38157 0.60693,0.46087 0.16725,0.45196 -1.41726,-0.0287 -0.71435,-0.21671 -1.57068,-0.3953 -1.90291,-0.39688 -1.56784,-0.007 -3.85212,-1.7863 -5.07789,-3.9544 -0.18341,-0.32439 -0.31371,-0.31476 -0.89506,0.0661 -0.3742,0.2452 -0.86907,0.44581 -1.09971,0.44581 -0.23061,0 -0.7547,0.17344 -1.16462,0.38541 -0.40991,0.21198 -1.45587,0.49984 -2.32431,0.63971 -0.86846,0.13985 -2.16458,0.53678 -2.8803,0.88205 -0.95427,0.46036 -1.5304,0.58091 -2.16046,0.45205 -0.47254,-0.0966 -0.85918,-0.0797 -0.85918,0.0376 0,0.32342 -0.71649,0.47804 -3.06488,0.66142 -1.98951,0.15535 -2.18861,0.1237 -2.85168,-0.45344 -0.59827,-0.52072 -0.73906,-0.90748 -0.87598,-2.40638 -0.0897,-0.98227 -0.19704,-1.78594 -0.23847,-1.78594 -0.0414,0 -0.76835,0.46016 -1.61539,1.02257 -3.39463,2.25395 -7.07445,3.46212 -9.36577,3.07501 -0.8835,-0.14927 -0.98502,-0.25462 -1.10461,-1.14628 -0.0724,-0.54005 -0.0404,-1.57385 0.0713,-2.29733 0.23474,-1.52133 0.1791,-1.66909 -0.40751,-1.08247 -0.23556,0.23554 -0.89059,0.50218 -1.45566,0.59254 -0.56507,0.0904 -1.22991,0.38807 -1.47743,0.66158 -0.24752,0.27352 -0.63995,0.49995 -0.87207,0.50318 -0.23209,0.003 -0.71966,0.23872 -1.08347,0.52329 -0.3638,0.28457 -0.84997,0.52004 -1.08037,0.52328 -0.23042,0.003 -0.50175,0.0887 -0.60298,0.18993 -0.19971,0.19972 -0.42355,0.24349 -2.41769,0.47273 -2.7483,0.31593 -3.38939,-1.53753 -1.74627,-5.04878 0.46775,-0.99961 1.03002,-2.01585 1.24946,-2.25834 0.22969,-0.2538 0.29213,-0.50692 0.14714,-0.59652 -0.13851,-0.0856 -0.38907,0.01 -0.55679,0.21181 -0.16772,0.20209 -0.98488,0.62986 -1.81591,0.95059 -0.83103,0.32073 -2.06286,0.86844 -2.73738,1.21713 -0.67456,0.3487 -1.3743,0.634 -1.55499,0.634 -0.18071,0 -1.17663,0.40985 -2.21316,0.91077 -1.03653,0.50093 -2.67898,1.20647 -3.6499,1.56787 -0.97089,0.36141 -2.05962,0.84996 -2.41937,1.08568 -0.41016,0.26875 -0.90266,0.36619 -1.32065,0.26128 -0.46937,-0.1178 -0.81814,-0.0157 -1.17903,0.34521 -0.38857,0.38856 -1.04992,0.55472 -2.73489,0.68714 -3.71999,0.29232 -6.57159,-0.60817 -8.7157,-2.75226 -0.85468,-0.8547 -1.04735,-1.23337 -1.04735,-2.05856 0,-1.75359 0.72295,-3.32071 2.25655,-4.89148 l 1.43531,-1.4701 -0.86534,-0.53481 c -1.37017,-0.8468 -4.14944,-4.31081 -4.14944,-5.17172 0,-0.24239 -0.1801,-0.78901 -0.40023,-1.21469 -0.96298,-1.8622 -0.80743,-5.86962 0.2731,-7.03553 1.0208,-1.10145 1.31974,-0.73376 1.22618,1.50815 -0.069,1.65201 0.0442,2.3117 0.70872,4.13258 0.84828,2.32431 0.85048,2.32784 2.77963,4.45556 1.6323,1.80027 2.27097,1.94767 4.44701,1.02632 2.89111,-1.22413 6.39033,-2.26202 7.36264,-2.1838 1.81433,0.14595 3.33603,1.26443 3.5841,2.63436 0.14923,0.82393 0.0674,1.06655 -0.57991,1.71979 -0.75679,0.76369 -1.27389,1.01092 -4.16341,1.99051 -1.54947,0.52529 -3.93329,0.57972 -5.7581,0.13147 -0.83968,-0.20626 -1.97538,0.17971 -2.799,0.95125 -1.65923,1.55429 0.34864,5.59623 3.25673,6.55599 1.21836,0.40209 4.0276,0.21054 4.90297,-0.33432 0.35073,-0.21831 1.29254,-0.61952 2.09291,-0.89159 0.80036,-0.27208 1.51474,-0.56195 1.5875,-0.64417 0.17425,-0.19689 1.53842,-0.69853 2.41977,-0.88979 0.385,-0.0836 1.57562,-0.55712 2.64583,-1.05237 1.07022,-0.49525 2.82062,-1.2633 3.88978,-1.70678 2.59312,-1.07563 5.51468,-2.83431 5.89788,-3.55033 0.52646,-0.98374 2.92616,-3.37121 3.38846,-3.37121 0.24083,0 0.57275,-0.13488 0.73758,-0.29972 0.38698,-0.38697 1.01687,-0.13963 1.38203,0.54267 0.24336,0.45469 0.14351,0.69022 -0.64866,1.53005 -1.43361,1.5199 -2.31185,3.54876 -3.27136,7.55735 -0.66085,2.76088 -0.31827,3.00669 2.02856,1.45552 0.97391,-0.64372 2.18747,-1.33556 2.69679,-1.53742 1.8827,-0.7462 4.7625,-3.4693 4.7625,-4.50337 0,-0.50574 2.61075,-2.893 3.16384,-2.893 0.78266,0 0.94906,0.66904 0.37888,1.5234 -1.14096,1.70965 -2.24014,4.33829 -2.62675,6.28181 -0.1737,0.87312 -0.40569,1.97193 -0.51554,2.44179 -0.18024,0.7709 -0.12817,0.88152 0.53358,1.13311 0.61241,0.23283 0.82772,0.19013 1.30577,-0.25899 0.31486,-0.29578 0.7533,-0.53779 0.97433,-0.53779 0.40727,0 2.34214,-1.77031 2.34214,-2.14293 0,-0.11146 0.23416,-0.27698 0.52036,-0.36782 1.11173,-0.35284 5.0359,-4.58818 5.0359,-5.43521 0,-0.42066 1.63504,-1.8884 2.78026,-2.49576 0.93364,-0.49515 0.99645,-0.49761 1.32234,-0.0519 0.35248,0.48203 0.32761,0.54222 -1.47738,3.57457 -0.71276,1.19745 -1.55549,4.61681 -1.74784,7.09178 l -0.1265,1.62792 1.54279,0.10036 c 0.84852,0.0552 2.07856,-0.0578 2.73341,-0.25116 0.65484,-0.19334 2.06415,-0.52081 3.13179,-0.72773 1.06768,-0.20692 2.55595,-0.66219 3.30729,-1.01172 0.75136,-0.34952 1.48519,-0.6807 1.63071,-0.73596 0.14552,-0.0553 0.76967,-0.39811 1.38702,-0.76192 0.88302,-0.52036 1.12287,-0.81552 1.12448,-1.3837 0.006,-1.97524 2.02261,-5.23204 4.46,-7.20137 2.53738,-2.05012 4.32647,-2.79226 6.72823,-2.79102 3.04397,0.002 4.37229,1.09833 4.03711,3.33338 -0.1493,0.99561 -0.40222,1.35856 -1.81144,2.59952 -1.92381,1.69411 -3.32465,2.67283 -4.19031,2.92765 -0.34243,0.1008 -1.15837,0.41777 -1.81322,0.70437 -3.31462,1.45071 -3.48535,1.63047 -2.83795,2.98811 0.32153,0.67424 0.70427,0.9598 1.74091,1.29886 3.70255,1.21105 9.71291,-0.16561 17.17048,-3.93285 1.92815,-0.97402 3.50573,-1.87566 3.50573,-2.00365 0,-0.12799 0.44648,-0.46288 0.99219,-0.74421 0.5457,-0.28133 1.2415,-0.74734 1.54625,-1.03558 0.30472,-0.28825 0.90003,-0.71771 1.32292,-0.95436 0.42285,-0.23665 1.30463,-0.83703 1.95947,-1.33419 0.65485,-0.49715 1.66688,-1.23892 2.24896,-1.64838 0.58208,-0.40945 1.40597,-1.08294 1.83089,-1.49665 0.42489,-0.41371 1.15282,-1.00902 1.61761,-1.32291 3.06255,-2.06828 9.10878,-8.08621 11.83709,-11.78167 1.1635,-1.57596 9.33548,-9.84342 11.27913,-11.41093 0.63154,-0.50932 1.95273,-1.40229 2.93598,-1.98437 0.98327,-0.58209 2.70878,-1.77271 3.8345,-2.64584 1.12569,-0.87312 2.28105,-1.72238 2.56744,-1.88723 0.28641,-0.16486 0.89797,-0.64753 1.35903,-1.0726 2.58212,-2.38048 4.93792,-3.90013 7.58521,-4.89298 2.67083,-1.00168 5.1018,-0.96745 5.43313,0.0765 0.33153,1.04457 -3.74337,4.41252 -4.46529,3.6906 -0.15396,-0.15396 -0.50961,-0.27992 -0.79031,-0.27992 -0.9022,0 -3.97351,1.23782 -5.34405,2.15379 -2.7449,1.83446 -7.98822,6.18587 -11.29948,9.37734 -1.27093,1.22496 -2.50249,2.2272 -2.73675,2.2272 -0.23429,0 -0.48609,0.22989 -0.55957,0.51087 -0.11935,0.4564 -0.50876,0.75335 -1.0764,0.82083 -0.41399,0.0492 -1.44817,1.21927 -1.7821,2.01624 -0.1923,0.45892 -0.57748,0.90672 -0.85596,0.99511 -0.27847,0.0884 -0.9058,0.69386 -1.39406,1.34549 -0.48826,0.65164 -1.10471,1.25366 -1.36991,1.33783 -0.26519,0.0842 -0.48217,0.2943 -0.48217,0.46695 0,0.17266 -1.34435,1.68268 -2.98741,3.35561 -3.17175,3.22937 -3.98748,4.35099 -5.77205,7.93649 -0.61566,1.23692 -1.51601,2.77209 -2.00078,3.41148 -1.0355,1.36572 -1.10916,1.74917 -0.28612,1.48949 0.32743,-0.10331 0.84048,-0.20649 1.14009,-0.2293 0.29964,-0.0228 0.93898,-0.37321 1.42079,-0.77868 0.48181,-0.40546 1.24867,-0.92729 1.70418,-1.1596 1.5544,-0.7928 5.5622,-4.34767 7.3823,-6.54801 0.61304,-0.74111 1.51566,-0.83951 1.51566,-0.16524 0,0.28766 -2.34293,2.96285 -3.3697,3.84757 -0.3378,0.29104 -1.35488,1.23025 -2.26023,2.08714 -0.90535,0.85688 -2.24658,1.94613 -2.98048,2.42055 -2.02427,1.30852 -2.10288,1.47058 -1.2464,2.5693 0.66085,0.84773 1.30342,1.82012 2.84586,4.30649 0.29133,0.4696 0.85688,1.24877 1.25677,1.73149 0.39992,0.48271 0.7271,1.0333 0.7271,1.22353 0,0.19023 0.10372,0.34587 0.23048,0.34587 0.12676,0 0.50731,0.40402 0.84566,0.89781 0.34155,0.49843 0.76864,0.83893 0.96015,0.76545 0.18973,-0.0728 0.34496,-5.3e-4 0.34496,0.16052 0,0.16109 -0.11906,0.29289 -0.26458,0.29289 -0.37264,0 -0.32941,0.76516 0.0661,1.17025 0.1819,0.18628 0.86651,0.96829 1.52135,1.73781 3.72999,4.38314 5.08305,5.81429 8.89466,9.40807 2.31121,2.17915 4.90823,4.55597 5.77114,5.28183 0.86292,0.72586 1.82023,1.55787 2.12739,1.84892 0.30715,0.29104 1.38708,1.15816 2.39982,1.92694 6.57159,4.98848 9.41099,6.50732 15.46741,8.27372 2.37387,0.69237 4.04916,0.61597 8.20208,-0.37402 3.6189,-0.86268 5.55625,-1.06816 5.55625,-0.5893 0,0.54104 -0.52141,0.86177 -2.11666,1.302 -0.80037,0.22087 -2.70537,0.77437 -4.23334,1.22999 -2.4452,0.72913 -6.7824,1.31708 -7.15713,0.97022 z m -126.66911,-36.2081 c -0.16978,-0.16978 -0.3965,-0.22085 -0.50387,-0.1135 -0.10734,0.10735 -0.0236,0.3013 0.18637,0.431 0.49414,0.30539 0.71726,0.0823 0.3175,-0.3175 z m 44.11403,-4.30548 c 0.91816,-0.35982 2.22068,-0.99453 2.89444,-1.41047 0.67378,-0.41593 1.7949,-1.04426 2.49137,-1.39629 1.28873,-0.65139 1.63488,-1.21725 1.46761,-2.39908 -0.07,-0.49419 -0.27524,-0.64005 -0.99766,-0.70884 -1.02833,-0.0979 -3.19146,0.43242 -3.19146,0.78246 0,0.12661 -0.1892,0.2302 -0.42045,0.2302 -0.50032,0 -3.98817,3.5071 -3.99179,4.01384 -0.003,0.19348 -0.0888,0.61967 -0.19421,0.94709 -0.24066,0.74736 -0.10467,0.74324 1.94215,-0.0589 z m -61.86805,-4.54791 c 2.18509,-0.52741 2.79853,-1.03962 2.22525,-1.85809 -0.42672,-0.60923 -1.59355,-0.93221 -2.23281,-0.61805 -0.22842,0.11225 -1.12967,0.41894 -2.00279,0.68154 -3.93608,1.18379 -3.98172,1.7726 -0.17016,2.1945 0.19746,0.0219 1.17869,-0.1581 2.18051,-0.3999 z M 8.9911597,232.93968 c 0,-0.15411 0.11906,-0.20661 0.26458,-0.11667 0.14552,0.0899 0.26458,0.21602 0.26458,0.2802 0,0.0642 -0.11906,0.11668 -0.26458,0.11668 -0.14552,0 -0.26458,-0.12609 -0.26458,-0.28021 z m -1.17131,-1.18069 c -0.28042,-0.21215 -0.43438,-0.4612 -0.34214,-0.55344 0.27818,-0.27818 0.98428,0.11696 0.98428,0.55082 0,0.48756 -10e-4,0.48757 -0.64214,0.003 z m -0.0193,-1.18494 c -0.0899,-0.14552 -0.0374,-0.26458 0.11668,-0.26458 0.15411,0 0.2802,0.11906 0.2802,0.26458 0,0.14552 -0.0525,0.26458 -0.11668,0.26458 -0.0642,0 -0.19026,-0.11906 -0.2802,-0.26458 z m -3.13839,-2.24896 c -0.0838,-0.21828 -0.0497,-0.39687 0.0757,-0.39687 0.12539,0 0.2965,0.17859 0.38027,0.39687 0.0838,0.21828 0.0497,0.39688 -0.0757,0.39688 -0.12538,0 -0.2965,-0.1786 -0.38027,-0.39688 z"
       id="path3710"
       inkscape:connector-curvature="0" />
  </g>
</svg>
